<?xml version="1.0" encoding="UTF-8"?>
<!DOCTYPE svg PUBLIC "-//W3C//DTD SVG 1.1//EN" "http://www.w3.org/Graphics/SVG/1.1/DTD/svg11.dtd">
<!-- Creator: CorelDRAW X7 -->
<svg xmlns="http://www.w3.org/2000/svg" xml:space="preserve" width="9.5672mm" height="12.1918mm" version="1.1" style="shape-rendering:geometricPrecision; text-rendering:geometricPrecision; image-rendering:optimizeQuality; fill-rule:evenodd; clip-rule:evenodd"
viewBox="0 0 957 1219"
 xmlns:xlink="http://www.w3.org/1999/xlink">
 <defs>
  <style type="text/css">
   <![CDATA[
    .fil3 {fill:#A9ABAE}
    .fil0 {fill:#373435}
    .fil2 {fill:#157B96}
    .fil1 {fill:#373435;fill-rule:nonzero}
   ]]>
  </style>
 </defs>
 <g id="Layer_x0020_1">
  <metadata id="CorelCorpID_0Corel-Layer"/>
  <g id="_347501928">
   <polygon class="fil0" points="478,18 708,134 937,251 937,251 708,368 487,481 478,485 478,481 478,485 249,368 19,251 19,251 249,134 "/>
   <path class="fil1" d="M486 2l230 117 229 117c9,4 12,15 8,23 -2,4 -4,6 -8,8l-229 117 -221 112 -8 4c-1,1 -2,1 -3,2 -1,0 -2,0 -2,0l-1 0 0 0 -1 0 -2 1 0 0c0,0 -1,0 -2,-1l0 0c-2,0 -4,-1 -6,-2l-229 -116 -229 -117c-9,-4 -13,-15 -8,-24 2,-3 4,-6 8,-7l229 -117 229 -117c6,-3 12,-3 16,0zm214 148l-222 -113 -221 113 -199 101 199 101 221 113 1 0 221 -113 199 -101 -199 -101z"/>
   <polygon class="fil2" points="478,1202 249,1087 19,971 19,741 19,732 249,848 478,963 "/>
   <path class="fil1" d="M469 1217l-228 -115 -229 -115c-7,-3 -10,-9 -10,-16l0 0 0 -230 0 -9c0,-9 8,-17 17,-17 4,0 7,1 10,2l228 115 229 115c6,3 10,9 10,16l0 0 0 239c0,9 -8,17 -18,17 -3,0 -6,-1 -9,-2zm-212 -146l204 102 0 -200 -220 -110 -204 -102 0 200 220 110z"/>
   <polygon class="fil2" points="937,732 937,741 937,971 708,1087 482,1200 478,1202 478,963 485,959 708,848 "/>
   <path class="fil1" d="M955 732l0 9 0 230c0,8 -5,14 -11,17l-228 114 -227 114 0 0 0 0 -3 1c-9,5 -19,1 -23,-8 -2,-2 -2,-5 -2,-7l0 0 0 -239c0,-8 4,-14 11,-17l5 -2 223 -112 229 -115c9,-5 20,-1 24,8 1,2 2,5 2,7l0 0zm-35 229l0 -200 -204 102 -220 110 0 200 204 -102 220 -110z"/>
   <polygon class="fil2" points="478,723 249,608 19,493 19,263 19,254 249,369 478,484 "/>
   <path class="fil1" d="M469 738l-228 -114 -229 -115c-6,-3 -10,-9 -10,-16l0 0 0 -230 0 -9c0,-9 8,-17 17,-17 4,0 7,1 10,2l228 115 229 115c6,3 10,9 10,15l0 0 0 239c0,10 -8,18 -18,18 -3,0 -6,-1 -9,-3zm-212 -145l204 102 0 -200 -220 -110 -204 -102 0 200 220 110z"/>
   <polygon class="fil2" points="937,254 937,263 937,493 708,608 482,722 478,723 478,484 485,481 708,369 "/>
   <path class="fil1" d="M955 254l0 9 0 230c0,8 -5,14 -11,17l-228 114 -226 114 -4 1c-8,4 -19,1 -23,-8 -1,-2 -2,-5 -2,-8l0 0 0 -239c0,-7 4,-13 11,-16l5 -3 223 -111 230 -115c8,-5 19,-1 23,7 1,3 2,6 2,8l0 0zm-35 229l0 -200 -204 102 -220 110 0 200 204 -102 220 -110z"/>
   <polygon class="fil2" points="478,963 249,848 19,732 19,502 19,493 249,608 478,724 "/>
   <path class="fil1" d="M469 978l-228 -115 -229 -115c-7,-3 -10,-9 -10,-16l0 0 0 -230 0 -9c0,-9 8,-17 17,-17 4,0 7,1 10,2l228 115 229 115c6,3 10,9 10,16l0 0 0 239c0,9 -8,17 -18,17 -3,0 -6,-1 -9,-2zm-212 -146l204 102 0 -200 -220 -110 -204 -102 0 200 220 110z"/>
   <polygon class="fil2" points="937,493 937,502 937,732 708,848 482,961 478,963 478,724 485,720 708,608 "/>
   <path class="fil1" d="M955 493l0 9 0 230c0,8 -5,14 -11,17l-228 114 -227 114 -3 1c-9,5 -19,1 -23,-8 -2,-2 -2,-5 -2,-7l0 0 0 -239c0,-8 4,-14 11,-17l5 -3 223 -111 229 -115c9,-5 20,-1 24,8 1,2 2,5 2,7l0 0zm-35 229l0 -200 -204 102 -220 110 0 200 204 -102 220 -110z"/>
   <polygon class="fil3" points="906,373 752,450 752,517 906,440 "/>
   <path class="fil1" d="M896 389l-134 67 0 45 134 -67 0 -45zm-148 52l153 -77c1,-1 3,-1 5,-1 6,0 10,4 10,10l0 67 0 0c0,4 -2,7 -5,9l-153 77c-2,1 -4,1 -6,1 -5,0 -10,-4 -10,-10l0 -67 0 0c0,-4 2,-7 6,-9z"/>
   <polygon class="fil3" points="906,591 752,668 752,735 906,658 "/>
   <path class="fil1" d="M896 607l-134 67 0 45 134 -67 0 -45zm-148 52l153 -77c1,-1 3,-1 5,-1 6,0 10,4 10,10l0 67 0 0c0,4 -2,8 -5,9l-153 77c-2,1 -4,2 -6,2 -5,0 -10,-5 -10,-11l0 -67 0 0c0,-4 2,-7 6,-9z"/>
   <polygon class="fil3" points="906,822 752,899 752,966 906,889 "/>
   <path class="fil1" d="M896 838l-134 67 0 45 134 -67 0 -45zm-148 52l153 -77c1,-1 3,-1 5,-1 6,0 10,4 10,10l0 67 0 0c0,4 -2,7 -5,9l-153 77c-2,1 -4,1 -6,1 -5,0 -10,-4 -10,-10l0 -67 0 0c0,-4 2,-7 6,-9z"/>
   <path class="fil3" d="M575 553c9,-1 17,7 17,18 0,10 -8,20 -17,21 -9,1 -16,-7 -16,-18 0,-11 7,-20 16,-21z"/>
   <path class="fil1" d="M575 549l1 0 1 0c5,0 9,2 13,5 3,4 5,8 6,14 0,1 0,2 0,3 0,6 -2,12 -6,16 -4,5 -9,8 -14,9l-1 0 -1 0 0 0c-5,0 -10,-2 -13,-6 -4,-3 -6,-8 -6,-13 -1,-1 -1,-2 -1,-3 0,-6 3,-12 6,-17 4,-4 9,-8 15,-8l0 0zm2 8l-1 0c-4,1 -7,3 -9,6 -3,3 -4,7 -4,11 0,1 0,2 0,2l0 0c0,4 2,7 4,9 2,1 4,3 7,3l0 0 1 0c3,-1 6,-3 8,-6 3,-3 4,-7 4,-11 0,-1 0,-2 0,-2l0 0c0,-4 -2,-7 -4,-9 -1,-2 -4,-3 -6,-3l0 0z"/>
   <path class="fil3" d="M523 579c9,-1 16,7 16,18 0,11 -7,20 -16,21 -9,1 -17,-7 -17,-18 0,-10 8,-20 17,-21z"/>
   <path class="fil1" d="M523 575l1 0 0 0c5,0 10,2 13,6 4,3 6,8 6,13 0,1 0,2 0,3 0,6 -2,12 -5,17 -4,4 -9,8 -15,8l0 0 -1 0 -1 0c-5,0 -9,-2 -13,-5 -3,-4 -5,-8 -6,-14 0,-1 0,-2 0,-3 0,-6 2,-12 6,-16 3,-5 9,-8 14,-9l1 0zm1 8l-1 0c-3,1 -6,3 -8,6 -3,3 -4,7 -4,11 0,1 0,2 0,2l0 0c0,4 1,7 3,9 2,2 5,3 7,3l0 0 1 0c4,-1 7,-3 9,-6 2,-3 4,-7 4,-11 0,-1 0,-1 0,-2l0 0c0,-4 -2,-7 -4,-9 -2,-1 -4,-3 -7,-3l0 0z"/>
   <path class="fil3" d="M624 528c9,-1 17,7 17,18 0,11 -8,20 -17,21 -9,1 -16,-7 -16,-17 0,-11 7,-21 16,-22z"/>
   <path class="fil1" d="M624 524l1 0 1 0c5,0 9,2 13,6 3,3 5,8 6,13 0,1 0,2 0,3 0,6 -2,12 -6,17 -3,5 -9,8 -14,8l-1 0 -1 0 0 0c-5,0 -10,-2 -13,-5 -4,-4 -6,-8 -6,-14 0,-1 0,-2 0,-2 0,-7 2,-13 5,-17 4,-5 9,-8 15,-9l0 0zm2 9l-1 0c-4,0 -7,2 -9,5 -2,3 -4,7 -4,12 0,0 0,1 0,1l0 0c0,4 2,7 4,9 2,2 4,3 7,3l0 0 1 0c3,0 6,-2 8,-5 3,-3 4,-8 4,-12 0,-1 0,-1 0,-2l0 0c0,-3 -1,-6 -3,-8 -2,-2 -5,-3 -7,-3l0 0z"/>
   <path class="fil3" d="M575 771c9,-1 17,7 17,18 0,11 -8,20 -17,21 -9,1 -16,-7 -16,-18 0,-10 7,-20 16,-21z"/>
   <path class="fil1" d="M575 767l1 0 1 0c5,0 9,2 13,6 3,3 5,8 6,13 0,1 0,2 0,3 0,6 -2,12 -6,17 -4,4 -9,8 -14,8l-1 0 -1 0 0 0c-5,0 -10,-2 -13,-5 -4,-4 -6,-8 -6,-14 -1,-1 -1,-2 -1,-3 0,-6 3,-12 6,-16 4,-5 9,-8 15,-9l0 0zm2 8l-1 0c-4,1 -7,3 -9,6 -3,3 -4,7 -4,11 0,1 0,2 0,2l0 0c0,4 2,7 4,9 2,2 4,3 7,3l0 0 1 0c3,-1 6,-3 8,-6 3,-3 4,-7 4,-11 0,-1 0,-2 0,-2l0 0c0,-4 -2,-7 -4,-9 -1,-1 -4,-3 -6,-3l0 0z"/>
   <path class="fil3" d="M523 797c9,-1 16,7 16,18 0,11 -7,20 -16,21 -9,1 -17,-7 -17,-17 0,-11 8,-21 17,-22z"/>
   <path class="fil1" d="M523 793l1 0 0 0c5,0 10,2 13,6 4,3 6,8 6,13 0,1 0,2 0,3 0,6 -2,12 -5,17 -4,5 -9,8 -15,8l0 0 -1 0 -1 0c-5,0 -9,-2 -13,-5 -3,-3 -5,-8 -6,-14 0,0 0,-1 0,-2 0,-7 2,-13 6,-17 3,-5 9,-8 14,-9l1 0zm1 9l-1 0c-3,0 -6,2 -8,5 -3,3 -4,7 -4,12 0,0 0,1 0,1l0 1c0,3 1,6 3,8 2,2 5,3 7,3l0 0 1 0c4,0 7,-2 9,-5 2,-3 4,-8 4,-12 0,-1 0,-1 0,-2l0 0c0,-3 -2,-6 -4,-8 -2,-2 -4,-3 -7,-3l0 0z"/>
   <path class="fil3" d="M624 747c9,-1 17,7 17,17 0,11 -8,20 -17,21 -9,1 -16,-7 -16,-17 0,-11 7,-20 16,-21z"/>
   <path class="fil1" d="M624 742l1 0 1 0c5,0 9,2 13,6 3,3 5,8 6,13 0,1 0,2 0,3 0,6 -2,12 -6,17 -3,5 -9,8 -14,9l-1 0 -1 0 0 0c-5,0 -10,-2 -13,-6 -4,-3 -6,-8 -6,-13 0,-1 0,-2 0,-3 0,-7 2,-13 5,-17 4,-5 9,-8 15,-9l0 0zm2 9l-1 0c-4,0 -7,2 -9,5 -2,3 -4,7 -4,12 0,0 0,1 0,2l0 0c0,3 2,6 4,8 2,2 4,3 7,3l0 0 1 0c3,0 6,-2 8,-5 3,-3 4,-7 4,-12 0,0 0,-1 0,-2l0 0c0,-3 -1,-6 -3,-8 -2,-2 -5,-3 -7,-3l0 0z"/>
   <path class="fil3" d="M575 1002c9,-1 17,7 17,18 0,10 -8,20 -17,21 -9,1 -16,-7 -16,-18 0,-10 7,-20 16,-21z"/>
   <path class="fil1" d="M575 998l1 0 1 0c5,0 9,2 13,5 3,4 5,8 6,14 0,1 0,2 0,3 0,6 -2,12 -6,16 -4,5 -9,8 -14,9l-1 0 -1 0 0 0c-5,0 -10,-2 -13,-5 -4,-4 -6,-9 -6,-14 -1,-1 -1,-2 -1,-3 0,-6 3,-12 6,-17 4,-4 9,-8 15,-8l0 0zm2 8l-1 0c-4,1 -7,3 -9,6 -3,3 -4,7 -4,11 0,1 0,2 0,2l0 0c0,4 2,7 4,9 2,2 4,3 7,3l0 0 1 0c3,-1 6,-3 8,-6 3,-3 4,-7 4,-11 0,-1 0,-2 0,-2l0 0c0,-4 -2,-7 -4,-9 -1,-2 -4,-3 -6,-3l0 0z"/>
   <path class="fil3" d="M523 1028c9,-1 16,7 16,18 0,11 -7,20 -16,21 -9,1 -17,-7 -17,-18 0,-10 8,-20 17,-21z"/>
   <path class="fil1" d="M523 1024l1 0 0 0c5,0 10,2 13,6 4,3 6,8 6,13 0,1 0,2 0,3 0,6 -2,12 -5,17 -4,4 -9,8 -15,8l0 0 -1 0 -1 0c-5,0 -9,-2 -13,-5 -3,-4 -5,-8 -6,-14 0,-1 0,-2 0,-3 0,-6 2,-12 6,-16 3,-5 9,-8 14,-9l1 0zm1 8l-1 1c-3,0 -6,2 -8,5 -3,3 -4,7 -4,11 0,1 0,2 0,2l0 0c0,4 1,7 3,9 2,2 5,3 7,3l0 0 1 0c4,-1 7,-3 9,-5 2,-4 4,-8 4,-12 0,-1 0,-1 0,-2l0 0c0,-4 -2,-6 -4,-9 -2,-1 -4,-3 -7,-3l0 0z"/>
   <path class="fil3" d="M624 977c9,-1 17,7 17,18 0,11 -8,20 -17,21 -9,1 -16,-7 -16,-17 0,-11 7,-21 16,-22z"/>
   <path class="fil1" d="M624 973l1 0 1 0c5,0 9,2 13,6 3,3 5,8 6,13 0,1 0,2 0,3 0,6 -2,12 -6,17 -3,5 -9,8 -14,8l-1 0 -1 0 0 1c-5,0 -10,-3 -13,-6 -4,-3 -6,-8 -6,-14 0,0 0,-1 0,-2 0,-7 2,-13 5,-17 4,-5 9,-8 15,-9l0 0zm2 9l-1 0c-4,0 -7,2 -9,5 -2,3 -4,7 -4,12 0,0 0,1 0,1l0 1c0,3 2,6 4,8 2,2 4,3 7,3l0 0 1 0c3,0 6,-2 8,-5 3,-3 4,-8 4,-12 0,-1 0,-1 0,-2l0 0c0,-3 -1,-6 -3,-8 -2,-2 -5,-3 -7,-3l0 0z"/>
  </g>
 </g>
</svg>
