<?xml version="1.0" encoding="UTF-8"?>
<!DOCTYPE svg PUBLIC "-//W3C//DTD SVG 1.1//EN" "http://www.w3.org/Graphics/SVG/1.1/DTD/svg11.dtd">
<!-- Creator: CorelDRAW X7 -->
<svg xmlns="http://www.w3.org/2000/svg" xml:space="preserve" width="1.0158mm" height="1.3546mm" version="1.1" style="shape-rendering:geometricPrecision; text-rendering:geometricPrecision; image-rendering:optimizeQuality; fill-rule:evenodd; clip-rule:evenodd"
viewBox="0 0 102 135"
 xmlns:xlink="http://www.w3.org/1999/xlink">
 <defs>
  <style type="text/css">
   <![CDATA[
    .fil3 {fill:#A9ABAE}
    .fil0 {fill:#373435}
    .fil2 {fill:#157B96}
    .fil1 {fill:#373435;fill-rule:nonzero}
   ]]>
  </style>
 </defs>
 <g id="Layer_x0020_1">
  <metadata id="CorelCorpID_0Corel-Layer"/>
  <g id="_522395672">
   <polygon class="fil0" points="51,2 76,15 102,28 102,28 76,41 52,53 51,54 51,53 51,54 25,41 0,28 0,28 25,15 "/>
   <path class="fil1" d="M52 1l25 12 25 13c1,1 2,2 1,3 0,0 0,1 -1,1l-25 13 -24 12 -1 1c0,0 0,0 -1,0 0,0 0,0 0,0l0 0 0 0 0 0 0 0 0 0c0,0 0,0 0,0l0 0c-1,0 -1,0 -1,0l-25 -13 -26 -13c-1,-1 -1,-2 -1,-3 1,0 1,0 1,-1l26 -13 25 -12c0,-1 1,-1 2,0zm23 16l-24 -13 -25 13 -22 11 22 11 25 13 0 0 24 -13 22 -11 -22 -11z"/>
   <polygon class="fil2" points="51,133 25,120 0,108 0,82 0,81 25,94 51,107 "/>
   <path class="fil1" d="M50 135l-25 -13 -26 -13c-1,0 -1,-1 -1,-1l0 0 0 -26 0 -1c0,-1 1,-2 2,-2 0,0 1,0 1,1l25 12 26 13c0,0 1,1 1,2l0 0 0 26c0,1 -1,2 -2,2 -1,0 -1,0 -1,0zm-24 -16l23 11 0 -22 -24 -12 -23 -12 0 23 24 12z"/>
   <polygon class="fil2" points="102,81 102,82 102,108 76,120 51,133 51,133 51,107 52,106 76,94 "/>
   <path class="fil1" d="M103 81l0 1 0 26c0,1 0,1 -1,2l-25 12 -25 13 0 0 0 0 0 0c-1,0 -2,0 -3,-1 0,0 0,-1 0,-1l0 0 0 -26c0,-1 0,-2 1,-2l1 0 24 -13 26 -12c1,-1 2,-1 2,0 0,1 0,1 0,1l0 0zm-3 26l0 -23 -23 12 -24 12 0 22 22 -11 25 -12z"/>
   <polygon class="fil2" points="51,80 25,68 0,55 0,29 0,28 25,41 51,54 "/>
   <path class="fil1" d="M50 82l-25 -13 -26 -12c0,-1 -1,-1 -1,-2l0 0 0 -26 0 -1c0,-1 1,-1 2,-1 0,0 1,0 1,0l25 12 26 13c0,1 1,1 1,2l0 0 0 26c0,1 -1,2 -2,2 -1,0 -1,0 -1,0zm-24 -16l23 11 0 -22 -24 -12 -23 -11 0 22 24 12z"/>
   <polygon class="fil2" points="102,28 102,29 102,55 76,68 51,80 51,80 51,54 52,54 76,41 "/>
   <path class="fil1" d="M103 28l0 1 0 26c0,1 0,1 -1,2l-25 12 -25 13 0 0c-1,1 -2,0 -3,-1 0,0 0,0 0,-1l0 0 0 -26c0,-1 0,-2 1,-2l1 0 24 -13 26 -12c1,-1 2,0 2,1 0,0 0,0 0,0l0 0zm-3 26l0 -22 -23 11 -24 12 0 22 22 -11 25 -12z"/>
   <polygon class="fil2" points="51,107 25,94 0,81 0,56 0,55 25,68 51,80 "/>
   <path class="fil1" d="M50 108l-25 -12 -26 -13c-1,0 -1,-1 -1,-2l0 0 0 -25 0 -1c0,-1 1,-2 2,-2 0,0 1,0 1,0l25 13 26 13c0,0 1,1 1,1l0 0 0 27c0,1 -1,2 -2,2 -1,0 -1,0 -1,-1zm-24 -16l23 12 0 -22 -24 -13 -23 -11 0 22 24 12z"/>
   <polygon class="fil2" points="102,55 102,56 102,81 76,94 51,107 51,107 51,80 52,80 76,68 "/>
   <path class="fil1" d="M103 55l0 1 0 25c0,1 0,2 -1,2l-25 13 -25 12 0 0c-1,1 -2,1 -3,0 0,-1 0,-1 0,-1l0 0 0 -27c0,0 0,-1 1,-1l1 -1 24 -12 26 -13c1,0 2,0 2,1 0,0 0,1 0,1l0 0zm-3 25l0 -22 -23 11 -24 13 0 22 22 -12 25 -12z"/>
   <polygon class="fil3" points="98,42 81,50 81,58 98,49 "/>
   <path class="fil1" d="M97 43l-15 8 0 5 15 -8 0 -5zm-16 6l17 -8c0,-1 0,-1 0,-1 1,0 1,1 1,2l0 7 0 0c0,0 0,1 0,1l-17 8c-1,1 -1,1 -1,1 -1,0 -1,-1 -1,-1l0 -8 0 0c0,0 0,-1 1,-1z"/>
   <polygon class="fil3" points="98,66 81,74 81,82 98,73 "/>
   <path class="fil1" d="M97 67l-15 8 0 5 15 -8 0 -5zm-16 6l17 -8c0,0 0,0 0,0 1,0 1,0 1,1l0 7 0 0c0,1 0,1 0,1l-17 9c-1,0 -1,0 -1,0 -1,0 -1,-1 -1,-1l0 -8 0 0c0,0 0,-1 1,-1z"/>
   <polygon class="fil3" points="98,91 81,100 81,107 98,99 "/>
   <path class="fil1" d="M97 93l-15 7 0 5 15 -7 0 -5zm-16 6l17 -9c0,0 0,0 0,0 1,0 1,1 1,1l0 8 0 0c0,0 0,0 0,1l-17 8c-1,0 -1,0 -1,0 -1,0 -1,0 -1,-1l0 -7 0 0c0,-1 0,-1 1,-1z"/>
   <path class="fil3" d="M61 61c1,0 2,1 2,2 0,2 -1,3 -2,3 -1,0 -1,-1 -1,-2 0,-1 0,-2 1,-3z"/>
   <path class="fil1" d="M61 61l1 0 0 0c0,0 1,0 1,1 0,0 1,1 1,1 0,0 0,0 0,0 0,1 0,2 -1,2 0,1 -1,1 -1,1l0 0 -1 0 0 0c0,0 -1,0 -1,0 0,-1 -1,-1 -1,-2 0,0 0,0 0,0 0,-1 0,-2 1,-2 0,-1 1,-1 1,-1l0 0zm1 1l0 0c-1,0 -1,0 -1,1 -1,0 -1,0 -1,1 0,0 0,0 0,0l0 0c0,0 0,1 1,1 0,0 0,0 0,0l0 0 0 0c1,0 1,0 1,0 1,-1 1,-1 1,-2 0,0 0,0 0,0l0 0c0,0 0,0 -1,-1 0,0 0,0 0,0l0 0z"/>
   <path class="fil3" d="M56 64c1,0 2,1 2,2 0,2 -1,3 -2,3 -1,0 -2,-1 -2,-2 0,-1 1,-3 2,-3z"/>
   <path class="fil1" d="M56 64l0 0 0 0c0,0 1,0 1,1 1,0 1,0 1,1 0,0 0,0 0,0 0,1 0,2 -1,2 0,1 -1,1 -1,1l0 0 0 0 0 0c-1,0 -2,0 -2,0 0,-1 0,-1 -1,-2 0,0 0,0 0,0 0,-1 1,-2 1,-2 0,-1 1,-1 2,-1l0 0zm0 1l0 0c-1,0 -1,0 -1,0 0,1 -1,1 -1,2 0,0 0,0 0,0l0 0c0,0 1,1 1,1 0,0 0,0 1,0l0 0 0 0c0,0 0,0 1,0 0,-1 0,-1 0,-2 0,0 0,0 0,0l0 0c0,0 0,-1 0,-1 -1,0 -1,0 -1,0l0 0z"/>
   <path class="fil3" d="M67 59c1,0 2,1 2,2 0,1 -1,2 -2,2 -1,0 -2,-1 -2,-2 0,-1 1,-2 2,-2z"/>
   <path class="fil1" d="M67 58l0 0 0 0c1,0 1,1 2,1 0,0 0,1 0,1 0,0 0,1 0,1 0,0 0,1 0,2 -1,0 -1,0 -2,1l0 0 0 0 0 0c-1,0 -1,-1 -2,-1 0,0 0,-1 0,-2 0,0 0,0 0,0 0,-1 0,-1 0,-2 1,0 1,-1 2,-1l0 0zm0 1l0 0c0,0 -1,0 -1,1 0,0 0,1 0,1 0,0 0,0 0,0l0 0c0,1 0,1 0,1 0,0 0,1 1,1l0 0 0 0c0,0 1,-1 1,-1 0,0 0,-1 0,-1 0,0 0,0 0,-1l0 0c0,0 0,0 0,0 0,-1 -1,-1 -1,-1l0 0z"/>
   <path class="fil3" d="M61 86c1,-1 2,0 2,2 0,1 -1,2 -2,2 -1,0 -1,-1 -1,-2 0,-1 0,-2 1,-2z"/>
   <path class="fil1" d="M61 85l1 0 0 0c0,0 1,0 1,1 0,0 1,1 1,1 0,0 0,0 0,1 0,0 0,1 -1,1 0,1 -1,1 -1,1l0 0 -1 0 0 0c0,0 -1,0 -1,0 0,-1 -1,-1 -1,-2 0,0 0,0 0,0 0,-1 0,-1 1,-2 0,0 1,-1 1,-1l0 0zm1 1l0 0c-1,0 -1,0 -1,1 -1,0 -1,0 -1,1 0,0 0,0 0,0l0 0c0,1 0,1 1,1 0,0 0,0 0,0l0 0 0 0c1,0 1,0 1,0 1,-1 1,-1 1,-1 0,-1 0,-1 0,-1l0 0c0,0 0,0 -1,-1 0,0 0,0 0,0l0 0z"/>
   <path class="fil3" d="M56 89c1,-1 2,0 2,1 0,2 -1,3 -2,3 -1,0 -2,-1 -2,-2 0,-1 1,-2 2,-2z"/>
   <path class="fil1" d="M56 88l0 0 0 0c0,0 1,0 1,1 1,0 1,1 1,1 0,0 0,0 0,0 0,1 0,2 -1,2 0,1 -1,1 -1,1l0 0 0 0 0 0c-1,0 -2,0 -2,0 0,-1 0,-1 -1,-2 0,0 0,0 0,0 0,-1 1,-2 1,-2 0,-1 1,-1 2,-1l0 0zm0 1l0 0c-1,0 -1,0 -1,1 0,0 -1,0 -1,1 0,0 0,0 0,0l0 0c0,0 1,1 1,1 0,0 0,0 1,0l0 0 0 0c0,0 0,0 1,0 0,-1 0,-1 0,-2 0,0 0,0 0,0l0 0c0,0 0,0 0,-1 -1,0 -1,0 -1,0l0 0z"/>
   <path class="fil3" d="M67 83c1,0 2,1 2,2 0,1 -1,2 -2,2 -1,0 -2,-1 -2,-2 0,-1 1,-2 2,-2z"/>
   <path class="fil1" d="M67 82l0 0 0 0c1,0 1,1 2,1 0,0 0,1 0,2 0,0 0,0 0,0 0,1 0,1 0,2 -1,0 -1,1 -2,1l0 0 0 0 0 0c-1,0 -1,-1 -2,-1 0,0 0,-1 0,-1 0,-1 0,-1 0,-1 0,0 0,-1 0,-2 1,0 1,-1 2,-1l0 0zm0 1l0 0c0,0 -1,1 -1,1 0,0 0,1 0,1 0,0 0,0 0,0l0 0c0,1 0,1 0,1 0,1 0,1 1,1l0 0 0 0c0,0 1,-1 1,-1 0,0 0,-1 0,-1 0,0 0,0 0,0l0 0c0,-1 0,-1 0,-1 0,-1 -1,-1 -1,-1l0 0z"/>
   <path class="fil3" d="M61 111c1,0 2,1 2,2 0,1 -1,2 -2,2 -1,1 -1,0 -1,-2 0,-1 0,-2 1,-2z"/>
   <path class="fil1" d="M61 111l1 0 0 0c0,0 1,0 1,0 0,1 1,1 1,2 0,0 0,0 0,0 0,1 0,1 -1,2 0,0 -1,1 -1,1l0 0 -1 0 0 0c0,0 -1,0 -1,-1 0,0 -1,-1 -1,-1 0,0 0,0 0,-1 0,0 0,-1 1,-1 0,-1 1,-1 1,-1l0 0zm1 1l0 0c-1,0 -1,0 -1,0 -1,1 -1,1 -1,1 0,1 0,1 0,1l0 0c0,0 0,0 1,1 0,0 0,0 0,0l0 0 0 0c1,0 1,0 1,-1 1,0 1,0 1,-1 0,0 0,0 0,0l0 0c0,-1 0,-1 -1,-1 0,0 0,0 0,0l0 0z"/>
   <path class="fil3" d="M56 114c1,0 2,1 2,2 0,1 -1,2 -2,2 -1,0 -2,0 -2,-2 0,-1 1,-2 2,-2z"/>
   <path class="fil1" d="M56 114l0 0 0 0c0,0 1,0 1,0 1,1 1,1 1,2 0,0 0,0 0,0 0,1 0,1 -1,2 0,0 -1,1 -1,1l0 0 0 0 0 0c-1,0 -2,0 -2,-1 0,0 0,-1 -1,-1 0,0 0,-1 0,-1 0,0 1,-1 1,-1 0,-1 1,-1 2,-1l0 0zm0 0l0 0c-1,1 -1,1 -1,1 0,0 -1,1 -1,1 0,0 0,1 0,1l0 0c0,0 1,0 1,1 0,0 0,0 1,0l0 0 0 0c0,0 0,0 1,-1 0,0 0,-1 0,-1 0,0 0,0 0,0l0 0c0,-1 0,-1 0,-1 -1,0 -1,-1 -1,-1l0 0z"/>
   <path class="fil3" d="M67 108c1,0 2,1 2,2 0,2 -1,3 -2,3 -1,0 -2,-1 -2,-2 0,-1 1,-2 2,-3z"/>
   <path class="fil1" d="M67 108l0 0 0 0c1,0 1,0 2,1 0,0 0,0 0,1 0,0 0,0 0,0 0,1 0,2 0,2 -1,1 -1,1 -2,1l0 0 0 0 0 0c-1,0 -1,0 -2,0 0,-1 0,-1 0,-2 0,0 0,0 0,0 0,-1 0,-2 0,-2 1,-1 1,-1 2,-1l0 0zm0 1l0 0c0,0 -1,0 -1,0 0,1 0,1 0,2 0,0 0,0 0,0l0 0c0,0 0,1 0,1 0,0 0,0 1,0l0 0 0 0c0,0 1,0 1,0 0,-1 0,-1 0,-2 0,0 0,0 0,0l0 0c0,0 0,-1 0,-1 0,0 -1,0 -1,0l0 0z"/>
  </g>
 </g>
</svg>
