<?xml version="1.0" encoding="UTF-8"?>
<!DOCTYPE svg PUBLIC "-//W3C//DTD SVG 1.1//EN" "http://www.w3.org/Graphics/SVG/1.1/DTD/svg11.dtd">
<!-- Creator: CorelDRAW X7 -->
<svg xmlns="http://www.w3.org/2000/svg" xml:space="preserve" width="21.6746mm" height="6.7732mm" version="1.1" style="shape-rendering:geometricPrecision; text-rendering:geometricPrecision; image-rendering:optimizeQuality; fill-rule:evenodd; clip-rule:evenodd"
viewBox="0 0 2167 677"
 xmlns:xlink="http://www.w3.org/1999/xlink">
 <defs>
  <style type="text/css">
   <![CDATA[
    .fil3 {fill:#A9ABAE}
    .fil0 {fill:#373435}
    .fil2 {fill:#157B96}
    .fil1 {fill:#373435;fill-rule:nonzero}
    .fil4 {fill:#157B96;fill-rule:nonzero}
   ]]>
  </style>
 </defs>
 <g id="Layer_x0020_1">
  <metadata id="CorelCorpID_0Corel-Layer"/>
  <g id="_522396248">
   <g>
    <polygon class="fil0" points="261,2 392,68 522,135 522,135 392,201 266,265 261,268 261,265 261,268 131,201 0,135 0,135 131,68 "/>
    <path class="fil1" d="M266 -7l130 66 131 67c5,2 7,8 4,13 -1,2 -2,4 -4,5l-131 66 -125 64 -5 3c-1,0 -1,0 -2,0 0,0 -1,1 -1,1l0 0 -1 0 0 0 -1 0 0 0c0,0 -1,0 -1,0l0 0c-2,-1 -3,-1 -4,-1l-130 -67 -130 -66c-5,-3 -7,-9 -5,-14 1,-2 3,-3 5,-4l130 -67 131 -66c3,-2 6,-1 9,0zm121 84l-126 -64 -126 64 -113 58 113 57 126 65 1 -1 125 -64 113 -57 -113 -58z"/>
    <polygon class="fil2" points="261,675 131,610 0,545 0,414 0,409 131,474 261,539 "/>
    <path class="fil1" d="M256 684l-130 -65 -130 -66c-4,-1 -6,-5 -6,-8l0 0 0 -131 0 -5c0,-6 4,-10 10,-10 2,0 4,0 5,1l130 65 131 66c3,1 5,5 5,8l0 0 0 136c0,6 -4,10 -10,10 -2,0 -4,0 -5,-1zm-121 -83l116 58 0 -113 -125 -63 -116 -58 0 113 125 63z"/>
    <polygon class="fil2" points="522,409 522,414 522,545 392,610 263,675 261,675 261,539 265,538 392,474 "/>
    <path class="fil1" d="M532 409l0 5 0 131c0,4 -2,7 -6,9l-130 65 -129 64 0 0 0 0 -2 1c-4,3 -10,1 -13,-4 -1,-2 -1,-3 -1,-5l0 0 0 -136c0,-4 3,-7 6,-9l3 -1 127 -64 131 -65c5,-3 11,-1 13,4 1,2 1,3 1,5l0 0zm-20 129l0 -113 -116 58 -125 63 0 113 116 -58 125 -63z"/>
    <polygon class="fil2" points="261,403 131,338 0,273 0,142 0,137 131,202 261,267 "/>
    <path class="fil1" d="M256 412l-130 -65 -130 -66c-4,-1 -6,-5 -6,-8l0 0 0 -131 0 -5c0,-6 5,-10 10,-10 2,0 4,0 5,1l130 65 131 66c3,1 5,5 5,8l0 0 0 136c0,6 -4,10 -10,10 -2,0 -4,0 -5,-1zm-121 -83l116 58 0 -113 -125 -63 -116 -58 0 113 125 63z"/>
    <polygon class="fil2" points="522,137 522,142 522,273 392,338 263,403 261,403 261,267 265,266 392,202 "/>
    <path class="fil1" d="M532 137l0 5 0 131c0,4 -2,7 -6,9l-130 65 -129 64 -1 1c-5,3 -11,1 -14,-4 0,-2 -1,-3 -1,-5l0 0 0 -136c0,-4 3,-7 7,-9l3 -1 126 -64 131 -65c5,-3 11,-1 13,4 1,2 1,3 1,5l0 0zm-20 129l0 -113 -116 58 -125 63 0 113 116 -58 125 -63z"/>
    <polygon class="fil2" points="261,539 131,474 0,409 0,278 0,273 131,338 261,403 "/>
    <path class="fil1" d="M256 548l-130 -65 -130 -66c-4,-1 -6,-5 -6,-8l0 0 0 -131 0 -5c0,-6 4,-10 10,-10 2,0 4,0 5,1l130 65 131 66c3,1 5,5 5,8l0 0 0 136c0,6 -4,10 -10,10 -2,0 -4,0 -5,-1zm-121 -83l116 58 0 -113 -125 -63 -116 -58 0 113 125 63z"/>
    <polygon class="fil2" points="522,273 522,278 522,409 392,474 263,539 261,539 261,403 265,402 392,338 "/>
    <path class="fil1" d="M532 273l0 5 0 131c0,4 -2,7 -6,9l-130 65 -129 64 -1 1c-5,3 -11,1 -14,-4 -1,-2 -1,-3 -1,-5l0 0 0 -136c0,-4 3,-7 6,-9l3 -1 127 -64 131 -65c5,-3 11,-1 13,4 1,2 1,3 1,5l0 0zm-20 129l0 -113 -116 58 -125 63 0 113 116 -58 125 -63z"/>
    <polygon class="fil3" points="504,204 417,248 417,286 504,242 "/>
    <path class="fil1" d="M499 213l-76 38 0 26 76 -38 0 -26zm-85 30l87 -44c1,-1 2,-1 3,-1 4,0 6,3 6,6l0 38 0 0c0,2 -1,4 -3,5l-87 44c-1,1 -2,1 -3,1 -3,0 -6,-3 -6,-6l0 -38 0 0c0,-2 1,-4 3,-5z"/>
    <polygon class="fil3" points="504,328 417,372 417,410 504,366 "/>
    <path class="fil1" d="M499 337l-76 38 0 26 76 -38 0 -26zm-85 30l87 -44c1,0 2,-1 3,-1 4,0 6,3 6,6l0 38 0 0c0,2 -1,4 -3,5l-87 44c-1,1 -2,1 -3,1 -3,0 -6,-3 -6,-6l0 -38 0 0c0,-2 1,-4 3,-5z"/>
    <polygon class="fil3" points="504,459 417,503 417,542 504,498 "/>
    <path class="fil1" d="M499 469l-76 38 0 25 76 -38 0 -25zm-85 29l87 -44c1,0 2,0 3,0 4,0 6,2 6,5l0 39 0 0c0,2 -1,4 -3,5l-87 43c-1,1 -2,1 -3,1 -3,0 -6,-2 -6,-5l0 -39 0 0c0,-2 1,-4 3,-5z"/>
    <path class="fil3" d="M316 306c5,0 9,4 9,11 0,6 -4,11 -9,12 -5,0 -9,-4 -9,-10 0,-7 4,-12 9,-13z"/>
    <path class="fil1" d="M316 304l1 0 0 0c3,0 5,1 7,3 2,2 3,5 4,8 0,0 0,1 0,2 0,3 -1,6 -3,9 -2,3 -5,5 -9,5l0 0 -1 0 0 0c-3,0 -5,-1 -7,-3 -2,-2 -3,-5 -4,-8 0,0 0,-1 0,-1 0,-4 2,-7 4,-10 2,-3 5,-5 8,-5l0 0zm1 5l-1 0c-1,0 -3,1 -5,3 -1,2 -2,4 -2,7 0,0 0,0 0,1l0 0c0,2 1,3 2,4 1,2 3,2 4,2l0 0 1 0c2,0 4,-1 5,-3 1,-2 2,-4 2,-6 0,-1 0,-1 0,-2l0 0c0,-2 -1,-3 -2,-4 -1,-1 -2,-2 -4,-2l0 0z"/>
    <path class="fil3" d="M286 321c6,0 10,4 10,10 0,7 -4,12 -10,12 -5,1 -9,-3 -9,-10 0,-6 4,-11 9,-12z"/>
    <path class="fil1" d="M286 319l1 0 0 0c3,0 6,1 8,3 1,2 3,5 3,8 0,0 0,1 0,1 0,4 -1,7 -3,10 -2,3 -5,4 -8,5l0 0 -1 0 0 0c-3,0 -6,-1 -8,-3 -2,-2 -3,-5 -3,-8 0,0 0,-1 0,-2 0,-3 1,-7 3,-9 2,-3 5,-5 8,-5l0 0zm1 5l0 0c-2,0 -4,1 -5,3 -2,2 -3,4 -3,6 0,1 1,1 1,2l0 0c0,2 1,3 2,4 1,1 2,2 4,2l0 0 0 0c2,0 4,-1 5,-3 1,-2 2,-4 2,-7 0,0 0,0 0,-1l0 0c0,-2 -1,-3 -2,-5 -1,-1 -2,-1 -4,-1l0 0z"/>
    <path class="fil3" d="M344 292c5,0 9,4 9,10 0,7 -4,12 -9,13 -5,0 -9,-4 -9,-11 0,-6 4,-11 9,-12z"/>
    <path class="fil1" d="M344 290l1 0 0 0c3,0 5,1 7,3 2,2 3,5 4,8 0,0 0,1 0,1 0,4 -1,7 -3,10 -2,3 -5,5 -9,5l0 0 -1 0 0 0c-3,0 -5,-1 -7,-3 -2,-2 -3,-5 -4,-8 0,0 0,-1 0,-2 0,-3 2,-6 4,-9 2,-3 5,-5 8,-5l0 0zm1 5l-1 0c-2,0 -3,1 -5,3 -1,2 -2,4 -2,6 0,1 0,1 0,2l0 0c0,2 1,3 2,4 1,2 3,2 4,2l0 0 1 0c2,0 3,-1 5,-3 1,-2 2,-4 2,-7 0,0 0,0 0,-1l0 0c0,-2 -1,-3 -2,-4 -1,-2 -3,-2 -4,-2l0 0z"/>
    <path class="fil3" d="M316 431c5,-1 9,4 9,10 0,6 -4,11 -9,12 -5,0 -9,-4 -9,-10 0,-6 4,-12 9,-12z"/>
    <path class="fil1" d="M316 428l1 0 0 0c3,0 5,1 7,3 2,2 3,5 4,8 0,1 0,1 0,2 0,3 -1,7 -3,9 -2,3 -5,5 -9,5l0 0 -1 0 0 0c-3,0 -5,-1 -7,-3 -2,-2 -3,-5 -4,-8 0,0 0,-1 0,-1 0,-4 2,-7 4,-10 2,-3 5,-4 8,-5l0 0zm1 5l-1 0c-1,0 -3,1 -5,3 -1,2 -2,4 -2,7 0,0 0,0 0,1l0 0c0,2 1,3 2,5 1,1 3,1 4,1l0 0 1 0c2,0 4,-1 5,-3 1,-2 2,-4 2,-6 0,-1 0,-1 0,-1l0 0c0,-2 -1,-4 -2,-5 -1,-1 -2,-2 -4,-2l0 0z"/>
    <path class="fil3" d="M286 446c6,-1 10,3 10,10 0,6 -4,11 -10,12 -5,0 -9,-4 -9,-10 0,-7 4,-12 9,-12z"/>
    <path class="fil1" d="M286 443l1 0 0 0c3,0 6,1 8,3 1,2 3,5 3,8 0,0 0,1 0,2 0,3 -1,7 -3,9 -2,3 -5,5 -8,5l0 0 -1 0 0 0c-3,0 -6,-1 -8,-3 -2,-2 -3,-5 -3,-8 0,0 0,-1 0,-1 0,-4 1,-7 3,-10 2,-3 5,-5 8,-5l0 0zm1 5l0 0c-2,0 -4,1 -5,3 -2,2 -3,4 -3,7 0,0 1,0 1,1l0 0c0,2 1,3 2,4 1,2 2,2 4,2l0 0 0 0c2,0 4,-1 5,-3 1,-2 2,-4 2,-6 0,-1 0,-1 0,-2l0 0c0,-2 -1,-3 -2,-4 -1,-1 -2,-2 -4,-2l0 0z"/>
    <path class="fil3" d="M344 417c5,-1 9,4 9,10 0,6 -4,11 -9,12 -5,0 -9,-4 -9,-10 0,-6 4,-12 9,-12z"/>
    <path class="fil1" d="M344 414l1 0 0 0c3,0 5,1 7,3 2,2 3,5 4,8 0,1 0,1 0,2 0,3 -1,7 -3,9 -2,3 -5,5 -9,5l0 0 -1 0 0 0c-3,0 -5,-1 -7,-3 -2,-2 -3,-5 -4,-8 0,0 0,-1 0,-1 0,-4 2,-7 4,-10 2,-3 5,-4 8,-5l0 0zm1 5l-1 0c-2,0 -3,1 -5,3 -1,2 -2,4 -2,7 0,0 0,0 0,1l0 0c0,2 1,3 2,5 1,1 3,1 4,1l0 0 1 0c2,0 3,-1 5,-3 1,-2 2,-4 2,-6 0,-1 0,-1 0,-1l0 -1c0,-1 -1,-3 -2,-4 -1,-1 -3,-2 -4,-2l0 0z"/>
    <path class="fil3" d="M316 562c5,-1 9,4 9,10 0,6 -4,11 -9,12 -5,1 -9,-4 -9,-10 0,-6 4,-12 9,-12z"/>
    <path class="fil1" d="M316 560l1 -1 0 0c3,0 5,2 7,4 2,2 3,4 4,7 0,1 0,1 0,2 0,4 -1,7 -3,10 -2,2 -5,4 -9,4l0 0 -1 0 0 0c-3,0 -5,-1 -7,-3 -2,-2 -3,-4 -4,-7 0,-1 0,-2 0,-2 0,-4 2,-7 4,-10 2,-2 5,-4 8,-4l0 0zm1 4l-1 0c-1,1 -3,2 -5,3 -1,2 -2,4 -2,7 0,0 0,1 0,1l0 0c0,2 1,4 2,5 1,1 3,2 4,2l0 0 1 0c2,-1 4,-2 5,-3 1,-2 2,-5 2,-7 0,0 0,-1 0,-1l0 0c0,-2 -1,-4 -2,-5 -1,-1 -2,-2 -4,-2l0 0z"/>
    <path class="fil3" d="M286 577c6,-1 10,4 10,10 0,6 -4,11 -10,12 -5,0 -9,-4 -9,-10 0,-6 4,-12 9,-12z"/>
    <path class="fil1" d="M286 574l1 0 0 0c3,0 6,2 8,4 1,2 3,4 3,7 0,1 0,1 0,2 0,3 -1,7 -3,9 -2,3 -5,5 -8,5l0 0 -1 0 0 0c-3,0 -6,-1 -8,-3 -2,-2 -3,-4 -3,-7 0,-1 0,-2 0,-2 0,-4 1,-7 3,-10 2,-2 5,-4 8,-5l0 0zm1 5l0 0c-2,0 -4,2 -5,3 -2,2 -3,4 -3,7 0,0 1,1 1,1l0 0c0,2 1,4 2,5 1,1 2,2 4,2l0 0 0 -1c2,0 4,-1 5,-3 1,-1 2,-4 2,-6 0,-1 0,-1 0,-1l0 0c0,-2 -1,-4 -2,-5 -1,-1 -2,-2 -4,-2l0 0z"/>
    <path class="fil3" d="M344 548c5,-1 9,4 9,10 0,6 -4,11 -9,12 -5,1 -9,-4 -9,-10 0,-6 4,-12 9,-12z"/>
    <path class="fil1" d="M344 546l1 -1 0 0c3,0 5,2 7,4 2,2 3,4 4,7 0,1 0,1 0,2 0,4 -1,7 -3,9 -2,3 -5,5 -9,5l0 0 -1 0 0 0c-3,0 -5,-1 -7,-3 -2,-2 -3,-4 -4,-7 0,-1 0,-2 0,-2 0,-4 2,-7 4,-10 2,-2 5,-4 8,-4l0 0zm1 4l-1 0c-2,1 -3,2 -5,3 -1,2 -2,4 -2,7 0,0 0,1 0,1l0 0c0,2 1,4 2,5 1,1 3,2 4,2l0 0 1 0c2,-1 3,-2 5,-3 1,-2 2,-5 2,-7 0,0 0,-1 0,-1l0 0c0,-2 -1,-4 -2,-5 -1,-1 -3,-2 -4,-2l0 0z"/>
   </g>
   <path class="fil1" d="M1353 331c0,43 8,60 38,60 18,0 43,0 60,-6l0 -21c-17,3 -25,3 -43,3 -17,0 -25,-2 -25,-23l37 0c21,0 33,-8 33,-29 0,-39 -16,-42 -50,-42 -36,0 -50,8 -50,58zm30 -9c0,-25 6,-26 22,-26 15,0 17,3 17,17 0,6 -3,9 -10,9l-29 0z"/>
   <path class="fil1" d="M1229 368c0,11 5,19 11,22l-10 11 0 15c0,23 16,33 36,33l33 0c29,0 37,-17 37,-33l0 -13c0,-24 -14,-35 -35,-35l-35 0c-5,0 -9,0 -9,-6 0,-5 5,-5 9,-5l27 0c32,0 40,-22 40,-39 0,-14 -3,-18 -5,-23l13 -4 0 -18 -71 0c-26,0 -40,14 -40,42 0,11 3,26 12,32 -9,3 -13,11 -13,21zm31 -53c0,-9 2,-17 15,-17l12 0c11,0 14,5 15,17 0,10 -4,18 -15,18l-12 0c-11,0 -15,-8 -15,-18zm1 97l0 -19c0,0 5,0 9,0l24 0c8,0 11,4 11,11l0 8c0,7 -1,13 -12,13l-18 0c-8,0 -14,-2 -14,-13l0 0z"/>
   <path class="fil1" d="M1114 360c0,16 10,31 33,31 17,1 34,-11 35,-14l7 13 24 0 0 -81c0,-29 -17,-38 -42,-38 -22,0 -38,2 -53,8l0 19c9,-1 38,-2 49,-2 9,0 15,1 15,14 0,0 0,7 0,7 0,1 -34,0 -34,0 -25,0 -34,15 -34,32l0 11zm30 -4l0 -6c0,-5 2,-11 10,-12l28 -2 0 22c0,0 -14,9 -27,9 -5,0 -11,-1 -11,-11z"/>
   <path class="fil1" d="M1026 390l30 0 0 -74c8,-11 17,-13 30,-13 7,0 14,0 17,0l0 -29c-3,-2 -8,-2 -13,-2 -15,0 -26,8 -34,16l-4 -15 -26 0 0 117z"/>
   <path class="fil1" d="M901 333c0,42 13,58 53,58 41,0 53,-14 53,-58 0,-46 -13,-61 -53,-61 -39,0 -53,14 -53,61zm31 0c0,-32 4,-36 22,-36 18,0 22,4 22,36 0,31 -5,33 -22,33 -16,0 -22,-2 -22,-33z"/>
   <path class="fil1" d="M812 297l19 0 0 51c0,31 11,42 29,42l26 0 0 -19c-1,0 -14,-4 -14,-4 -6,-3 -10,-6 -10,-23l0 -47 26 0 0 -24 -26 0 0 -32 -26 0 -5 32 -19 7 0 17z"/>
   <path class="fil1" d="M696 283c0,14 2,43 41,43l25 0c12,0 14,6 14,15l0 9c0,12 -10,14 -19,14 -21,0 -48,-2 -56,-3l0 24c16,5 34,7 62,7 21,0 44,-7 44,-43l0 -11c0,-18 -6,-43 -38,-43l-25 0c-13,0 -18,-2 -18,-15l0 -8c0,-15 8,-16 22,-16 7,0 39,1 53,3l0 -25c-12,-3 -39,-6 -62,-6 -24,0 -43,10 -43,41l0 14z"/>
   <path class="fil4" d="M2090 390l31 0 0 -74c8,-11 17,-13 30,-13 6,0 13,0 16,0l0 -29c-3,-2 -7,-2 -12,-2 -15,0 -26,8 -34,16l-5 -15 -26 0 0 117z"/>
   <path class="fil4" d="M1973 331c0,43 9,60 39,60 18,0 43,0 59,-6l0 -21c-16,3 -25,3 -42,3 -17,0 -25,-2 -25,-23l37 0c21,0 33,-8 33,-29 0,-39 -16,-42 -50,-42 -37,0 -51,8 -51,58zm31 -9c0,-25 6,-26 22,-26 15,0 17,3 17,17 0,6 -3,9 -10,9l-29 0z"/>
   <polygon class="fil4" points="1854,273 1895,390 1929,390 1972,273 1939,273 1913,354 1887,273 "/>
   <path class="fil4" d="M1769 390l31 0 0 -74c8,-11 17,-13 30,-13 6,0 13,0 17,0l0 -29c-4,-2 -8,-2 -13,-2 -15,0 -26,8 -34,16l-5 -15 -26 0 0 117z"/>
   <path class="fil4" d="M1652 331c0,43 9,60 39,60 18,0 43,0 60,-6l0 -21c-17,3 -26,3 -43,3 -17,0 -25,-2 -25,-23l37 0c21,0 33,-8 33,-29 0,-39 -16,-42 -50,-42 -37,0 -51,8 -51,58zm31 -9c0,-25 6,-26 22,-26 15,0 17,3 17,17 0,6 -3,9 -10,9l-29 0z"/>
   <path class="fil4" d="M1525 283c0,14 3,43 42,43l24 0c12,0 15,6 15,15l0 9c0,12 -11,14 -20,14 -20,0 -47,-2 -56,-3l0 24c17,5 35,7 62,7 22,0 45,-7 45,-43l0 -11c0,-18 -7,-43 -38,-43l-26 0c-12,0 -17,-2 -17,-15l0 -8c0,-15 8,-16 21,-16 8,0 40,1 54,3l0 -25c-13,-3 -39,-6 -62,-6 -25,0 -44,10 -44,41l0 14z"/>
  </g>
 </g>
</svg>
