<?xml version="1.0" encoding="UTF-8"?>
<!DOCTYPE svg PUBLIC "-//W3C//DTD SVG 1.1//EN" "http://www.w3.org/Graphics/SVG/1.1/DTD/svg11.dtd">
<!-- Creator: CorelDRAW X7 -->
<svg xmlns="http://www.w3.org/2000/svg" xml:space="preserve" width="16.9332mm" height="21.6746mm" version="1.1" style="shape-rendering:geometricPrecision; text-rendering:geometricPrecision; image-rendering:optimizeQuality; fill-rule:evenodd; clip-rule:evenodd"
viewBox="0 0 1693 2167"
 xmlns:xlink="http://www.w3.org/1999/xlink">
 <defs>
  <style type="text/css">
   <![CDATA[
    .fil3 {fill:#A9ABAE}
    .fil0 {fill:#373435}
    .fil2 {fill:#157B96}
    .fil1 {fill:#373435;fill-rule:nonzero}
   ]]>
  </style>
 </defs>
 <g id="Layer_x0020_1">
  <metadata id="CorelCorpID_0Corel-Layer"/>
  <g id="_350765432">
   <polygon class="fil0" points="847,31 1255,239 1663,447 1663,447 1255,654 862,854 847,862 847,854 847,862 439,654 31,447 31,447 439,239 "/>
   <path class="fil1" d="M861 3l408 208 408 208c15,8 21,27 14,42 -4,6 -8,11 -14,14l-408 207 -392 200 -15 8c-2,1 -4,1 -5,2 -2,0 -3,1 -5,1l0 0 -1 0 -1 0 -3 1 0 0c-2,0 -3,-1 -5,-1l0 0c-4,0 -7,-2 -10,-3l-407 -208 -408 -207c-16,-8 -22,-27 -14,-42 3,-7 8,-11 14,-14l408 -208 408 -208c9,-4 19,-4 28,0zm380 264l-394 -201 -394 201 -353 180 353 180 394 200 1 -1 393 -199 353 -180 -353 -180z"/>
   <polygon class="fil2" points="847,2136 439,1932 31,1727 31,1318 31,1302 439,1507 847,1711 "/>
   <path class="fil1" d="M830 2163l-405 -204 -408 -204c-11,-6 -17,-17 -17,-28l-1 0 0 -409 0 -16c0,-17 14,-31 32,-31 6,0 11,2 16,4l405 204 408 204c11,6 18,17 18,28l0 0 0 425c0,17 -14,31 -31,31 -6,0 -12,-1 -17,-4zm-378 -259l363 182 0 -356 -390 -195 -363 -182 0 355 390 196z"/>
   <polygon class="fil2" points="1662,1302 1662,1318 1662,1727 1255,1932 852,2133 847,2136 847,1711 859,1705 1255,1507 "/>
   <path class="fil1" d="M1694 1302l0 16 0 409c0,13 -9,25 -20,29l-406 203 -402 202 0 0 0 0 -6 3c-15,8 -34,1 -41,-14 -3,-4 -4,-9 -4,-14l0 0 0 -425c0,-13 9,-24 20,-29l10 -5 396 -198 408 -205c15,-7 34,-1 41,14 3,5 4,9 4,14l0 0zm-63 406l0 -355 -363 182 -390 195 0 356 363 -182 390 -196z"/>
   <polygon class="fil2" points="847,1286 439,1082 31,877 31,468 31,452 439,657 847,861 "/>
   <path class="fil1" d="M830 1313l-405 -204 -408 -204c-11,-6 -17,-17 -17,-28l0 0 0 -409 0 -16c0,-17 14,-31 31,-31 6,0 11,2 16,4l406 204 408 204c11,6 17,17 17,28l0 0 0 425c0,17 -14,31 -31,31 -6,0 -12,-1 -17,-4zm-377 -259l363 182 0 -356 -391 -195 -363 -182 0 355 391 196z"/>
   <polygon class="fil2" points="1663,452 1663,468 1663,877 1255,1082 853,1283 847,1286 847,861 859,855 1255,657 "/>
   <path class="fil1" d="M1694 452l0 16 0 409c0,13 -8,25 -20,29l-405 203 -403 202 -5 3c-16,8 -34,2 -42,-14 -2,-4 -3,-9 -3,-14l0 0 0 -425c0,-13 8,-24 19,-29l10 -5 396 -198 408 -205c15,-7 34,-1 42,14 2,5 3,9 3,14l0 0zm-63 406l0 -355 -362 182 -391 195 0 356 363 -182 390 -196z"/>
   <polygon class="fil2" points="847,1711 439,1507 31,1302 31,893 31,877 439,1082 847,1286 "/>
   <path class="fil1" d="M830 1738l-405 -203 -408 -205c-11,-6 -17,-16 -17,-28l-1 0 0 -409 0 -16c0,-17 14,-31 32,-31 6,0 11,2 16,5l405 203 408 205c11,5 18,16 18,27l0 0 0 425c0,18 -14,32 -31,32 -6,0 -12,-2 -17,-5zm-378 -259l363 182 0 -355 -390 -196 -363 -182 0 355 390 196z"/>
   <polygon class="fil2" points="1662,877 1662,893 1662,1302 1255,1507 852,1708 847,1711 847,1286 859,1280 1255,1082 "/>
   <path class="fil1" d="M1694 877l0 16 0 409c0,13 -9,25 -20,29l-406 204 -402 201 -6 3c-15,8 -34,2 -41,-14 -3,-4 -4,-9 -4,-14l0 0 0 -425c0,-13 9,-24 20,-29l10 -5 396 -198 408 -205c15,-7 34,-1 41,14 3,5 4,9 4,14l0 0zm-63 406l0 -355 -363 182 -390 195 0 356 363 -182 390 -196z"/>
   <polygon class="fil3" points="1607,662 1334,800 1334,920 1607,782 "/>
   <path class="fil1" d="M1589 691l-238 120 0 80 238 -119 0 -81zm-263 93l272 -137c3,-1 6,-2 9,-2 10,0 18,8 18,17l0 120 0 0c0,7 -4,13 -10,16l-272 137c-3,2 -6,2 -9,2 -10,0 -18,-8 -18,-17l0 -120 0 0c0,-7 3,-13 10,-16z"/>
   <polygon class="fil3" points="1607,1050 1334,1187 1334,1308 1607,1170 "/>
   <path class="fil1" d="M1589 1079l-238 119 0 81 238 -120 0 -80zm-263 93l272 -137c3,-2 6,-3 9,-3 10,0 18,8 18,18l0 120 0 0c0,7 -4,13 -10,16l-272 137c-3,1 -6,2 -9,2 -10,0 -18,-8 -18,-17l0 -121 0 0c0,-6 3,-12 10,-15z"/>
   <polygon class="fil3" points="1607,1461 1334,1598 1334,1718 1607,1581 "/>
   <path class="fil1" d="M1589 1490l-238 119 0 80 238 -119 0 -80zm-263 92l272 -136c3,-2 6,-3 9,-3 10,0 18,8 18,18l0 120 0 0c0,6 -4,13 -10,16l-272 136c-3,2 -6,3 -9,3 -10,0 -18,-8 -18,-18l0 -120 0 0c0,-7 3,-13 10,-16z"/>
   <path class="fil3" d="M1019 983c16,-2 29,12 29,32 0,19 -13,35 -29,37 -16,2 -30,-12 -30,-31 0,-19 14,-36 30,-38z"/>
   <path class="fil1" d="M1018 976l3 0 0 0c9,0 17,3 23,10 6,5 10,14 11,23 0,2 0,4 0,6 0,11 -4,21 -10,29 -6,9 -15,14 -26,16l0 0 -3 0 0 0c-9,0 -17,-4 -23,-10 -6,-6 -10,-15 -11,-24 0,-2 0,-4 0,-5 0,-11 4,-22 10,-30 7,-8 16,-14 26,-15l0 0zm3 15l-2 0c-5,0 -11,4 -15,9 -4,6 -7,13 -7,21 0,1 0,2 0,3l0 0c1,6 3,12 7,15 3,4 7,6 12,6l0 0 2 0c6,-1 11,-5 15,-10 5,-5 7,-13 7,-20 0,-2 0,-3 0,-4l0 0c-1,-6 -3,-11 -7,-15 -3,-3 -7,-5 -12,-5l0 0z"/>
   <path class="fil3" d="M926 1030c16,-2 29,12 29,31 0,19 -13,36 -29,38 -16,1 -30,-13 -30,-32 0,-19 14,-35 30,-37z"/>
   <path class="fil1" d="M925 1022l3 0 0 0c9,0 17,4 23,10 6,6 10,14 11,24 0,2 0,3 0,5 0,11 -3,22 -10,30 -6,8 -15,14 -26,15l0 0 -3 0 0 0c-9,0 -17,-3 -23,-10 -6,-6 -10,-14 -11,-23 0,-2 0,-4 0,-6 0,-11 4,-21 10,-30 7,-8 16,-14 26,-15l0 0zm3 15l-2 0c-5,1 -11,5 -15,10 -4,5 -7,13 -7,20 0,2 0,3 0,4l0 0c1,6 3,11 7,15 3,3 7,5 12,5l0 0 2 0c6,0 11,-4 15,-9 5,-6 7,-13 7,-21 0,-1 0,-2 0,-3l0 0c0,-7 -3,-12 -6,-15 -4,-4 -8,-6 -13,-6l0 0z"/>
   <path class="fil3" d="M1106 939c16,-1 29,13 29,32 0,19 -13,36 -29,37 -16,2 -29,-12 -29,-31 0,-19 13,-36 29,-38z"/>
   <path class="fil1" d="M1106 932l2 0 1 0c9,0 17,3 23,10 5,6 9,14 10,24 1,1 1,3 1,5 0,11 -4,22 -10,30 -7,8 -16,14 -26,15l-1 0 -2 0 -1 0c-9,0 -17,-4 -23,-10 -6,-6 -9,-14 -11,-24 0,-2 0,-3 0,-5 0,-11 4,-22 10,-30 7,-8 16,-14 26,-15l1 0zm3 15l-2 0c-6,1 -12,4 -16,9 -4,6 -7,13 -7,21 0,1 0,2 0,3l0 0c1,7 4,12 7,16 3,3 8,5 12,5l0 0 2 0c6,-1 12,-4 16,-10 4,-5 7,-13 7,-20 0,-1 -1,-3 -1,-4l0 0c0,-6 -3,-11 -6,-15 -3,-3 -8,-5 -12,-5l0 0z"/>
   <path class="fil3" d="M1019 1371c16,-2 29,12 29,31 0,19 -13,36 -29,38 -16,2 -30,-12 -30,-31 0,-19 14,-36 30,-38z"/>
   <path class="fil1" d="M1018 1364l3 -1 0 0c9,0 17,4 23,10 6,6 10,15 11,24 0,2 0,4 0,5 0,12 -4,22 -10,30 -6,9 -15,14 -26,15l0 0 -3 1 0 0c-9,0 -17,-4 -23,-10 -6,-6 -10,-15 -11,-24 0,-2 0,-4 0,-5 0,-12 4,-22 10,-30 7,-9 16,-14 26,-15l0 0zm3 14l-2 1c-5,0 -11,4 -15,9 -4,6 -7,13 -7,21 0,1 0,2 0,3l0 0c1,6 3,12 7,15 3,4 7,6 12,6l0 0 2 -1c6,0 11,-4 15,-9 5,-6 7,-13 7,-21 0,-1 0,-2 0,-3l0 0c-1,-6 -3,-12 -7,-15 -3,-4 -7,-6 -12,-6l0 0z"/>
   <path class="fil3" d="M926 1418c16,-2 29,12 29,31 0,19 -13,36 -29,38 -16,1 -30,-13 -30,-32 0,-19 14,-36 30,-37z"/>
   <path class="fil1" d="M925 1410l3 0 0 0c9,0 17,4 23,10 6,6 10,14 11,24 0,2 0,3 0,5 0,11 -3,22 -10,30 -6,8 -15,14 -26,15l0 0 -3 0 0 0c-9,0 -17,-3 -23,-10 -6,-6 -10,-14 -11,-24 0,-1 0,-3 0,-5 0,-11 4,-22 10,-30 7,-8 16,-14 26,-15l0 0zm3 15l-2 0c-5,1 -11,4 -15,10 -4,5 -7,12 -7,20 0,1 0,3 0,4l0 0c1,6 3,11 7,15 3,3 7,5 12,5l0 0 2 0c6,-1 11,-4 15,-9 5,-6 7,-13 7,-21 0,-1 0,-2 0,-3l0 0c0,-7 -3,-12 -6,-16 -4,-3 -8,-5 -13,-5l0 0z"/>
   <path class="fil3" d="M1106 1327c16,-1 29,13 29,32 0,19 -13,35 -29,37 -16,2 -29,-12 -29,-31 0,-19 13,-36 29,-38z"/>
   <path class="fil1" d="M1106 1320l2 0 1 0c9,0 17,3 23,10 5,6 9,14 10,23 1,2 1,4 1,6 0,11 -4,21 -10,29 -7,9 -16,15 -26,16l-1 0 -2 0 -1 0c-9,0 -17,-4 -23,-10 -6,-6 -9,-14 -11,-24 0,-2 0,-3 0,-5 0,-11 4,-22 10,-30 7,-8 16,-14 26,-15l1 0zm3 15l-2 0c-6,0 -12,4 -16,9 -4,6 -7,13 -7,21 0,1 0,2 0,3l0 0c1,6 4,12 7,15 3,4 8,6 12,6l0 0 2 0c6,-1 12,-5 16,-10 4,-5 7,-13 7,-20 0,-2 -1,-3 -1,-4l0 0c0,-6 -3,-11 -6,-15 -3,-3 -8,-5 -12,-5l0 0z"/>
   <path class="fil3" d="M1019 1781c16,-1 29,13 29,32 0,19 -13,36 -29,37 -16,2 -30,-12 -30,-31 0,-19 14,-36 30,-38z"/>
   <path class="fil1" d="M1018 1774l3 0 0 0c9,0 17,4 23,10 6,6 10,14 11,24 0,1 0,3 0,5 0,11 -4,22 -10,30 -6,8 -15,14 -26,15l0 0 -3 0 0 0c-9,0 -17,-4 -23,-10 -6,-6 -10,-14 -11,-24 0,-2 0,-3 0,-5 0,-11 4,-22 10,-30 7,-8 16,-14 26,-15l0 0zm3 15l-2 0c-5,1 -11,4 -15,9 -4,6 -7,13 -7,21 0,1 0,2 0,3l0 1c1,6 3,11 7,15 3,3 7,5 12,5l0 0 2 0c6,-1 11,-4 15,-10 5,-5 7,-12 7,-20 0,-1 0,-3 0,-4l0 0c-1,-6 -3,-11 -7,-15 -3,-3 -7,-5 -12,-5l0 0z"/>
   <path class="fil3" d="M926 1828c16,-2 29,12 29,31 0,19 -13,36 -29,38 -16,2 -30,-12 -30,-31 0,-19 14,-36 30,-38z"/>
   <path class="fil1" d="M925 1821l3 -1 0 0c9,0 17,4 23,10 6,6 10,15 11,24 0,2 0,4 0,5 0,12 -3,22 -10,30 -6,9 -15,14 -26,15l0 0 -3 1 0 0c-9,0 -17,-4 -23,-10 -6,-6 -10,-15 -11,-24 0,-2 0,-4 0,-5 0,-12 4,-22 10,-30 7,-9 16,-14 26,-15l0 0zm3 14l-2 1c-5,0 -11,4 -15,9 -4,6 -7,13 -7,21 0,1 0,2 0,3l0 0c1,6 3,12 7,15 3,4 7,6 12,6l0 0 2 -1c6,0 11,-4 15,-9 5,-5 7,-13 7,-21 0,-1 0,-2 0,-3l0 0c0,-6 -3,-12 -6,-15 -4,-3 -8,-5 -13,-5l0 -1z"/>
   <path class="fil3" d="M1106 1738c16,-2 29,12 29,31 0,19 -13,36 -29,38 -16,1 -29,-13 -29,-32 0,-19 13,-36 29,-37z"/>
   <path class="fil1" d="M1106 1730l2 0 1 0c9,0 17,4 23,10 5,6 9,14 10,24 1,2 1,3 1,5 0,11 -4,22 -10,30 -7,8 -16,14 -26,15l-1 0 -2 0 -1 0c-9,0 -17,-3 -23,-10 -6,-6 -9,-14 -11,-24 0,-1 0,-3 0,-5 0,-11 4,-22 10,-30 7,-8 16,-14 26,-15l1 0zm3 15l-2 0c-6,1 -12,4 -16,10 -4,5 -7,12 -7,20 0,1 0,3 0,4l0 0c1,6 4,11 7,15 3,3 8,5 12,5l0 0 2 0c6,-1 12,-4 16,-9 4,-6 7,-13 7,-21 0,-1 -1,-2 -1,-3l0 0c0,-7 -3,-12 -6,-16 -3,-3 -8,-5 -12,-5l0 0z"/>
  </g>
 </g>
</svg>
