<?xml version="1.0" encoding="UTF-8"?>
<!DOCTYPE svg PUBLIC "-//W3C//DTD SVG 1.1//EN" "http://www.w3.org/Graphics/SVG/1.1/DTD/svg11.dtd">
<!-- Creator: CorelDRAW X7 -->
<svg xmlns="http://www.w3.org/2000/svg" xml:space="preserve" width="2.8786mm" height="3.7252mm" version="1.1" style="shape-rendering:geometricPrecision; text-rendering:geometricPrecision; image-rendering:optimizeQuality; fill-rule:evenodd; clip-rule:evenodd"
viewBox="0 0 288 373"
 xmlns:xlink="http://www.w3.org/1999/xlink">
 <defs>
  <style type="text/css">
   <![CDATA[
    .fil3 {fill:#A9ABAE}
    .fil0 {fill:#373435}
    .fil2 {fill:#157B96}
    .fil1 {fill:#373435;fill-rule:nonzero}
   ]]>
  </style>
 </defs>
 <g id="Layer_x0020_1">
  <metadata id="CorelCorpID_0Corel-Layer"/>
  <g id="_525395432">
   <polygon class="fil0" points="144,5 214,41 284,77 284,77 214,112 147,147 144,148 144,147 144,148 74,112 4,77 4,77 74,41 "/>
   <path class="fil1" d="M146 1l71 35 70 36c2,1 3,5 2,7 -1,1 -1,2 -2,3l-70 35 -68 35 -2 1c-1,0 -1,0 -1,0 -1,0 -1,0 -1,0l0 1 0 0 0 0 -1 0 0 0c0,0 -1,0 -1,0l0 0c0,-1 -1,-1 -2,-1l-70 -36 -70 -35c-2,-2 -3,-5 -2,-8 0,-1 1,-2 2,-2l70 -36 71 -35c1,-1 3,-1 4,0zm66 45l-68 -35 -68 35 -60 31 60 31 68 34 0 0 68 -34 60 -31 -60 -31z"/>
   <polygon class="fil2" points="144,367 74,332 4,297 4,227 4,224 74,259 144,294 "/>
   <path class="fil1" d="M141 372l-70 -35 -70 -35c-2,-1 -3,-3 -3,-5l0 0 0 -71 0 -2c0,-3 3,-6 6,-6 1,0 2,1 2,1l70 35 70 35c2,1 3,3 3,5l0 0 0 73c0,3 -2,6 -5,6 -1,0 -2,-1 -3,-1zm-65 -45l63 31 0 -61 -68 -33 -62 -32 0 62 67 33z"/>
   <polygon class="fil2" points="284,224 284,227 284,297 214,332 145,367 144,367 144,294 146,293 214,259 "/>
   <path class="fil1" d="M290 224l0 2 0 71c0,2 -2,4 -4,5l-70 35 -69 34 0 0 0 0 -1 1c-2,1 -6,0 -7,-2 0,-1 0,-2 0,-3l0 0 0 -73c0,-2 1,-4 3,-5l2 -1 68 -34 70 -35c2,-1 6,0 7,2 0,1 0,2 0,3l1 0zm-11 70l0 -62 -63 32 -67 33 0 61 63 -31 67 -33z"/>
   <polygon class="fil2" points="144,221 74,186 4,151 4,80 4,78 74,113 144,148 "/>
   <path class="fil1" d="M141 226l-70 -35 -70 -35c-2,-1 -3,-3 -3,-5l0 0 0 -71 0 -2c0,-3 3,-6 6,-6 1,0 2,1 3,1l69 35 70 35c2,1 3,3 3,5l0 0 0 73c0,3 -2,5 -5,5 -1,0 -2,0 -3,0zm-65 -45l63 31 0 -61 -68 -33 -62 -32 0 61 67 34z"/>
   <polygon class="fil2" points="284,78 284,80 284,151 214,186 145,221 144,221 144,148 146,147 214,113 "/>
   <path class="fil1" d="M290 78l0 2 0 71c0,2 -2,4 -4,5l-70 35 -69 34 -1 1c-2,1 -6,0 -7,-3 0,0 0,-1 0,-2l0 0 0 -73c0,-2 1,-4 3,-5l2 -1 68 -34 70 -35c2,-1 6,0 7,2 0,1 1,2 1,3l0 0zm-11 69l0 -61 -63 32 -67 33 0 61 63 -31 67 -34z"/>
   <polygon class="fil2" points="144,294 74,259 4,224 4,153 4,151 74,186 144,221 "/>
   <path class="fil1" d="M141 299l-70 -35 -70 -35c-2,-1 -3,-3 -3,-5l0 0 0 -71 0 -2c0,-3 3,-6 6,-6 1,0 2,1 2,1l70 35 70 35c2,1 3,3 3,5l0 0 0 73c0,3 -2,6 -5,6 -1,0 -2,-1 -3,-1zm-65 -45l63 31 0 -61 -68 -33 -62 -32 0 61 67 34z"/>
   <polygon class="fil2" points="284,151 284,153 284,224 214,259 145,294 144,294 144,221 146,220 214,186 "/>
   <path class="fil1" d="M290 151l0 2 0 71c0,2 -2,4 -4,5l-70 35 -69 34 -1 1c-2,1 -6,0 -7,-2 0,-1 0,-2 0,-3l0 0 0 -73c0,-2 1,-4 3,-5l2 -1 68 -34 70 -35c2,-1 6,0 7,2 0,1 0,2 0,3l1 0zm-11 69l0 -61 -63 32 -67 33 0 61 63 -31 67 -34z"/>
   <polygon class="fil3" points="275,114 228,137 228,158 275,134 "/>
   <path class="fil1" d="M272 119l-41 20 0 14 41 -20 0 -14zm-46 16l47 -24c1,0 1,0 2,0 1,0 3,1 3,3l0 20 0 0c0,2 -1,3 -2,3l-47 24c0,0 -1,0 -1,0 -2,0 -3,-1 -3,-3l0 -21 0 0c0,-1 0,-2 1,-2z"/>
   <polygon class="fil3" points="275,181 228,204 228,225 275,201 "/>
   <path class="fil1" d="M272 185l-41 21 0 14 41 -21 0 -14zm-46 16l47 -23c1,0 1,-1 2,-1 1,0 3,2 3,4l0 20 0 0c0,1 -1,2 -2,3l-47 23c0,1 -1,1 -1,1 -2,0 -3,-2 -3,-3l0 -21 0 0c0,-1 0,-2 1,-3z"/>
   <polygon class="fil3" points="275,251 228,275 228,295 275,272 "/>
   <path class="fil1" d="M272 256l-41 21 0 13 41 -20 0 -14zm-46 16l47 -24c1,0 1,0 2,0 1,0 3,1 3,3l0 21 0 0c0,1 -1,2 -2,2l-47 24c0,0 -1,0 -1,0 -2,0 -3,-1 -3,-3l0 -20 0 0c0,-1 0,-3 1,-3z"/>
   <path class="fil3" d="M173 169c3,0 6,2 6,5 0,4 -3,7 -6,7 -2,0 -5,-2 -5,-6 0,-3 3,-6 5,-6z"/>
   <path class="fil1" d="M173 168l1 0 0 0c1,0 3,0 4,1 1,1 2,3 2,4 0,1 0,1 0,1 0,2 -1,4 -2,6 -1,1 -3,2 -4,2l0 0 -1 0 0 0c-2,0 -3,0 -4,-2 -1,-1 -2,-2 -2,-4 0,0 0,0 0,-1 0,-1 1,-3 2,-5 1,-1 3,-2 4,-2l0 0zm1 2l0 0c-1,0 -2,1 -3,2 -1,1 -1,2 -1,3 0,1 0,1 0,1l0 0c0,1 0,2 1,3 0,0 1,1 2,1l0 0 0 0c1,-1 2,-1 3,-2 1,-1 1,-2 1,-4 0,0 0,0 0,0l0 0c0,-1 0,-2 -1,-3 -1,0 -1,-1 -2,-1l0 0z"/>
   <path class="fil3" d="M158 177c2,0 5,2 5,5 0,4 -3,7 -5,7 -3,0 -6,-2 -6,-6 0,-3 3,-6 6,-6z"/>
   <path class="fil1" d="M157 176l1 0 0 0c2,0 3,0 4,1 1,1 2,3 2,4 0,1 0,1 0,1 0,2 -1,4 -2,6 -1,1 -3,2 -4,2l0 0 -1 0 0 0c-1,0 -3,0 -4,-2 -1,-1 -2,-2 -2,-4 0,0 0,0 0,-1 0,-1 1,-3 2,-5 1,-1 3,-2 4,-2l0 0zm1 2l0 0c-1,0 -2,1 -3,2 -1,1 -1,2 -1,3 0,1 0,1 0,1l0 0c0,1 0,2 1,3 1,0 1,1 2,1l0 0 0 0c1,-1 2,-1 3,-2 1,-1 1,-2 1,-4 0,0 0,0 0,0l0 0c0,-1 0,-2 -1,-3 0,0 -1,-1 -2,-1l0 0z"/>
   <path class="fil3" d="M188 161c3,0 6,3 6,6 0,3 -3,6 -6,6 -2,1 -5,-2 -5,-5 0,-3 3,-6 5,-7z"/>
   <path class="fil1" d="M188 160l1 0 0 0c1,0 3,1 4,2 1,1 2,2 2,4 0,0 0,1 0,1 0,2 -1,4 -2,5 -1,1 -3,2 -4,3l0 0 -1 0 0 0c-1,0 -3,-1 -4,-2 -1,-1 -2,-3 -2,-4 0,0 0,-1 0,-1 0,-2 1,-4 2,-5 1,-2 3,-3 4,-3l0 0zm1 3l0 0c-1,0 -2,0 -3,1 -1,1 -1,3 -1,4 0,0 0,0 0,1l0 0c0,1 0,1 1,2 0,1 1,1 2,1l0 0 0 0c1,0 2,-1 3,-2 1,-1 1,-2 1,-3 0,0 0,-1 0,-1l0 0c0,-1 0,-2 -1,-2 -1,-1 -1,-1 -2,-1l0 0z"/>
   <path class="fil3" d="M173 236c3,-1 6,2 6,5 0,3 -3,6 -6,6 -2,1 -5,-2 -5,-5 0,-3 3,-6 5,-6z"/>
   <path class="fil1" d="M173 234l1 0 0 0c1,0 3,1 4,2 1,1 2,3 2,4 0,0 0,1 0,1 0,2 -1,4 -2,5 -1,2 -3,3 -4,3l0 0 -1 0 0 0c-2,0 -3,-1 -4,-2 -1,-1 -2,-2 -2,-4 0,0 0,-1 0,-1 0,-2 1,-4 2,-5 1,-1 3,-2 4,-3l0 0zm1 3l0 0c-1,0 -2,1 -3,2 -1,1 -1,2 -1,3 0,0 0,1 0,1l0 0c0,1 0,2 1,2 0,1 1,1 2,1l0 0 0 0c1,0 2,-1 3,-1 1,-1 1,-3 1,-4 0,0 0,0 0,-1l0 0c0,-1 0,-2 -1,-2 -1,-1 -1,-1 -2,-1l0 0z"/>
   <path class="fil3" d="M158 244c2,-1 5,2 5,5 0,3 -3,6 -5,6 -3,1 -6,-2 -6,-5 0,-3 3,-6 6,-6z"/>
   <path class="fil1" d="M157 242l1 0 0 0c2,0 3,1 4,2 1,1 2,3 2,4 0,0 0,1 0,1 0,2 -1,4 -2,5 -1,2 -3,3 -4,3l0 0 -1 0 0 0c-1,0 -3,-1 -4,-2 -1,-1 -2,-2 -2,-4 0,0 0,-1 0,-1 0,-2 1,-4 2,-5 1,-1 3,-2 4,-3l0 0zm1 3l0 0c-1,0 -2,1 -3,2 -1,1 -1,2 -1,3 0,0 0,1 0,1l0 0c0,1 0,2 1,2 1,1 1,1 2,1l0 0 0 0c1,0 2,-1 3,-1 1,-1 1,-3 1,-4 0,0 0,0 0,-1l0 0c0,-1 0,-2 -1,-2 0,-1 -1,-1 -2,-1l0 0z"/>
   <path class="fil3" d="M188 228c3,0 6,2 6,6 0,3 -3,6 -6,6 -2,0 -5,-2 -5,-5 0,-4 3,-7 5,-7z"/>
   <path class="fil1" d="M188 227l1 0 0 0c1,0 3,0 4,2 1,1 2,2 2,4 0,0 0,0 0,1 0,1 -1,3 -2,5 -1,1 -3,2 -4,2l0 0 -1 0 0 0c-1,0 -3,0 -4,-1 -1,-1 -2,-3 -2,-5 0,0 0,0 0,0 0,-2 1,-4 2,-6 1,-1 3,-2 4,-2l0 0zm1 2l0 0c-1,1 -2,1 -3,2 -1,1 -1,2 -1,4 0,0 0,0 0,0l0 0c0,1 0,2 1,3 0,0 1,1 2,1l0 0 0 0c1,0 2,-1 3,-2 1,-1 1,-2 1,-3 0,-1 0,-1 0,-1l0 0c0,-1 0,-2 -1,-3 -1,0 -1,-1 -2,-1l0 0z"/>
   <path class="fil3" d="M173 306c3,0 6,2 6,6 0,3 -3,6 -6,6 -2,0 -5,-2 -5,-5 0,-4 3,-7 5,-7z"/>
   <path class="fil1" d="M173 305l1 0 0 0c1,0 3,1 4,2 1,1 2,2 2,4 0,0 0,0 0,1 0,1 -1,3 -2,5 -1,1 -3,2 -4,2l0 0 -1 0 0 0c-2,0 -3,0 -4,-1 -1,-1 -2,-3 -2,-4 0,-1 0,-1 0,-1 0,-2 1,-4 2,-5 1,-2 3,-3 4,-3l0 0zm1 2l0 0c-1,1 -2,1 -3,2 -1,1 -1,2 -1,4 0,0 0,0 0,0l0 0c0,1 0,2 1,3 0,0 1,1 2,1l0 0 0 0c1,0 2,-1 3,-2 1,-1 1,-2 1,-3 0,-1 0,-1 0,-1l0 0c0,-1 0,-2 -1,-3 -1,0 -1,-1 -2,-1l0 0z"/>
   <path class="fil3" d="M158 314c2,0 5,2 5,6 0,3 -3,6 -5,6 -3,0 -6,-2 -6,-5 0,-4 3,-6 6,-7z"/>
   <path class="fil1" d="M157 313l1 0 0 0c2,0 3,1 4,2 1,1 2,2 2,4 0,0 0,0 0,1 0,2 -1,3 -2,5 -1,1 -3,2 -4,2l0 0 -1 0 0 0c-1,0 -3,0 -4,-1 -1,-1 -2,-3 -2,-4 0,-1 0,-1 0,-1 0,-2 1,-4 2,-5 1,-2 3,-3 4,-3l0 0zm1 2l0 0c-1,1 -2,1 -3,2 -1,1 -1,2 -1,4 0,0 0,0 0,0l0 0c0,1 0,2 1,3 1,0 1,1 2,1l0 0 0 0c1,0 2,-1 3,-2 1,-1 1,-2 1,-3 0,-1 0,-1 0,-1l0 0c0,-1 0,-2 -1,-3 0,0 -1,-1 -2,-1l0 0z"/>
   <path class="fil3" d="M188 299c3,-1 6,2 6,5 0,3 -3,6 -6,7 -2,0 -5,-3 -5,-6 0,-3 3,-6 5,-6z"/>
   <path class="fil1" d="M188 297l1 0 0 0c1,0 3,1 4,2 1,1 2,3 2,4 0,0 0,1 0,1 0,2 -1,4 -2,5 -1,2 -3,3 -4,3l0 0 -1 0 0 0c-1,0 -3,-1 -4,-2 -1,-1 -2,-2 -2,-4 0,0 0,-1 0,-1 0,-2 1,-4 2,-5 1,-1 3,-2 4,-3l0 0zm1 3l0 0c-1,0 -2,1 -3,2 -1,1 -1,2 -1,3 0,0 0,1 0,1l0 0c0,1 0,2 1,2 0,1 1,1 2,1l0 0 0 0c1,0 2,-1 3,-1 1,-1 1,-3 1,-4 0,0 0,0 0,-1l0 0c0,-1 0,-2 -1,-2 -1,-1 -1,-1 -2,-1l0 0z"/>
  </g>
 </g>
</svg>
