<?xml version="1.0" encoding="UTF-8"?>
<!DOCTYPE svg PUBLIC "-//W3C//DTD SVG 1.1//EN" "http://www.w3.org/Graphics/SVG/1.1/DTD/svg11.dtd">
<!-- Creator: CorelDRAW X7 -->
<svg xmlns="http://www.w3.org/2000/svg" xml:space="preserve" width="43.3492mm" height="13.8006mm" version="1.1" style="shape-rendering:geometricPrecision; text-rendering:geometricPrecision; image-rendering:optimizeQuality; fill-rule:evenodd; clip-rule:evenodd"
viewBox="0 0 4335 1380"
 xmlns:xlink="http://www.w3.org/1999/xlink">
 <defs>
  <style type="text/css">
   <![CDATA[
    .fil3 {fill:#A9ABAE}
    .fil0 {fill:#373435}
    .fil2 {fill:#157B96}
    .fil1 {fill:#373435;fill-rule:nonzero}
    .fil4 {fill:#157B96;fill-rule:nonzero}
   ]]>
  </style>
 </defs>
 <g id="Layer_x0020_1">
  <metadata id="CorelCorpID_0Corel-Layer"/>
  <g id="_522376088">
   <g>
    <polygon class="fil0" points="541,20 800,152 1060,284 1060,284 800,417 551,544 541,549 541,544 541,549 281,417 21,284 21,284 281,152 "/>
    <path class="fil1" d="M550 2l259 132 260 133c10,5 14,17 9,26 -2,4 -5,7 -9,9l-260 132 -249 128 -10 4c-1,1 -2,2 -3,2 -1,0 -2,0 -3,1l0 0 -1 0 0 0 -2 0 0 0c-1,0 -2,0 -3,0l0 0c-3,-1 -5,-1 -7,-3l-259 -132 -260 -132c-10,-5 -14,-17 -9,-27 2,-3 6,-6 9,-8l260 -133 260 -132c6,-3 12,-3 18,0zm241 168l-250 -128 -251 128 -225 114 225 115 251 128 1 -1 249 -127 225 -115 -225 -114z"/>
    <polygon class="fil2" points="541,1360 281,1230 21,1100 21,839 21,829 281,959 541,1090 "/>
    <path class="fil1" d="M530 1377l-258 -129 -260 -131c-7,-3 -11,-10 -11,-17l0 0 0 -261 0 -10c0,-11 9,-20 20,-20 4,0 7,1 10,3l259 130 259 130c7,3 11,10 11,18l0 0 0 270c0,11 -8,20 -19,20 -4,0 -8,-1 -11,-3zm-240 -165l231 116 0 -226 -249 -125 -231 -116 0 226 249 125z"/>
    <polygon class="fil2" points="1060,829 1060,839 1060,1100 800,1230 544,1358 541,1360 541,1090 548,1086 800,959 "/>
    <path class="fil1" d="M1080 829l0 10 0 261c0,8 -5,15 -13,18l-258 130 -256 128 0 0 0 0 -4 2c-10,5 -21,1 -26,-9 -2,-3 -2,-6 -2,-9l0 0 0 -270c0,-9 5,-16 12,-19l6 -3 252 -126 260 -131c10,-5 22,-1 27,9 1,3 2,6 2,9l0 0zm-40 258l0 -226 -231 116 -249 125 0 226 231 -116 249 -125z"/>
    <polygon class="fil2" points="541,819 281,689 21,558 21,298 21,288 281,418 541,548 "/>
    <path class="fil1" d="M530 836l-258 -130 -260 -130c-7,-3 -11,-10 -11,-18l0 0 0 -260 0 -10c0,-11 9,-20 20,-20 4,0 8,1 11,3l258 129 260 131c6,3 10,10 10,17l1 0 0 271c0,11 -9,20 -20,20 -4,0 -8,-1 -11,-3zm-240 -165l231 116 0 -226 -249 -125 -231 -116 0 226 249 125z"/>
    <polygon class="fil2" points="1060,288 1060,298 1060,558 800,689 544,817 541,819 541,548 548,545 800,418 "/>
    <path class="fil1" d="M1080 288l0 10 0 260c0,9 -5,16 -13,19l-258 129 -256 129 -3 2c-10,5 -22,1 -27,-9 -1,-3 -2,-6 -2,-9l0 0 0 -271c0,-8 5,-15 12,-18l6 -3 253 -127 259 -130c10,-5 22,-1 27,9 1,3 2,6 2,9l0 0zm-40 258l0 -226 -231 116 -248 125 0 226 231 -116 248 -125z"/>
    <polygon class="fil2" points="541,1090 281,959 21,829 21,569 21,558 281,689 541,819 "/>
    <path class="fil1" d="M530 1107l-258 -130 -260 -130c-7,-4 -11,-11 -11,-18l0 0 0 -260 0 -10c0,-11 9,-20 20,-20 4,0 7,1 10,3l259 129 259 130c7,4 11,11 11,18l0 0 0 271c0,11 -8,20 -19,20 -4,0 -8,-2 -11,-3zm-240 -165l231 115 0 -226 -249 -125 -231 -115 0 226 249 125z"/>
    <polygon class="fil2" points="1060,558 1060,569 1060,829 800,959 544,1088 541,1090 541,819 548,815 800,689 "/>
    <path class="fil1" d="M1080 559l0 10 0 260c0,9 -5,16 -13,19l-258 129 -256 128 -4 2c-9,5 -21,1 -26,-9 -2,-2 -2,-5 -2,-8l0 0 0 -271c0,-8 5,-16 12,-19l6 -3 252 -126 260 -130c10,-5 22,-1 27,9 1,2 2,6 2,9l0 0zm-40 258l0 -226 -231 115 -249 125 0 226 231 -115 249 -125z"/>
    <polygon class="fil3" points="1025,422 851,509 851,586 1025,498 "/>
    <path class="fil1" d="M1013 440l-151 76 0 51 151 -76 0 -51zm-167 59l173 -87c2,-1 4,-2 6,-2 6,0 11,6 11,12l0 76 0 0c0,4 -2,8 -6,10l-173 87c-2,1 -4,2 -6,2 -7,0 -12,-5 -12,-11l0 -77 0 0c0,-4 3,-8 7,-10z"/>
    <polygon class="fil3" points="1025,669 851,756 851,833 1025,745 "/>
    <path class="fil1" d="M1013 687l-151 76 0 51 151 -76 0 -51zm-167 59l173 -87c2,-1 4,-2 6,-2 6,0 11,5 11,12l0 76 0 0c0,4 -2,8 -6,10l-173 87c-2,1 -4,2 -6,2 -7,0 -12,-5 -12,-11l0 -77 0 0c0,-4 3,-8 7,-10z"/>
    <polygon class="fil3" points="1025,930 851,1017 851,1094 1025,1006 "/>
    <path class="fil1" d="M1013 948l-151 76 0 51 151 -75 0 -52zm-167 59l173 -87c2,-1 4,-1 6,-1 6,0 11,5 11,11l0 76 0 0c0,5 -2,9 -6,11l-173 87c-2,1 -4,1 -6,1 -7,0 -12,-5 -12,-11l0 -77 0 0c0,-4 3,-8 7,-10z"/>
    <path class="fil3" d="M650 626c10,-1 19,8 19,20 0,12 -9,23 -19,24 -10,1 -18,-8 -18,-20 0,-12 8,-23 18,-24z"/>
    <path class="fil1" d="M650 621l2 0 0 0c5,0 11,3 14,7 4,3 7,9 7,15 0,1 0,2 0,3 0,7 -2,14 -6,19 -4,5 -10,9 -16,10l-1 0 -1 0 -1 0c-5,0 -10,-3 -14,-7 -4,-3 -6,-9 -7,-15 0,-1 0,-2 0,-3 0,-7 2,-14 6,-19 4,-5 10,-9 17,-10l0 0zm2 10l-1 0c-4,0 -8,2 -10,6 -3,3 -5,8 -5,13 0,1 0,1 0,2l0 0c1,4 2,7 5,10 2,2 4,3 7,3l0 0 2 0c3,0 7,-3 9,-6 3,-3 5,-8 5,-13 0,-1 0,-2 0,-2l0 0c-1,-4 -2,-8 -4,-10 -2,-2 -5,-3 -8,-3l0 0z"/>
    <path class="fil3" d="M591 656c10,-1 18,8 18,20 0,12 -8,22 -18,24 -10,1 -19,-8 -19,-20 0,-12 9,-23 19,-24z"/>
    <path class="fil1" d="M591 651l1 0 1 0c5,0 10,2 14,6 4,4 6,9 7,15 0,1 0,3 0,4 0,7 -2,14 -6,19 -4,5 -10,9 -17,9l0 0 -2 0 0 0c-5,0 -11,-2 -14,-6 -4,-4 -7,-9 -7,-15 0,-1 0,-2 0,-3 0,-8 2,-14 6,-19 4,-6 10,-9 16,-10l1 0zm2 9l-2 0c-3,1 -7,3 -9,6 -3,4 -5,9 -5,14 0,0 0,1 0,2l0 0c1,4 2,7 4,9 2,3 5,4 8,4l0 0 1 0c4,-1 8,-3 10,-6 3,-4 5,-8 5,-13 0,-1 0,-2 0,-3l0 0c-1,-4 -2,-7 -5,-9 -2,-2 -4,-4 -7,-4l0 0z"/>
    <path class="fil3" d="M706 598c10,-1 18,8 18,20 0,12 -8,23 -18,24 -11,1 -19,-8 -19,-20 0,-12 8,-23 19,-24z"/>
    <path class="fil1" d="M705 593l2 0 0 0c6,0 11,3 15,7 4,3 6,9 7,15 0,1 0,2 0,3 0,7 -2,14 -6,19 -5,5 -10,9 -17,10l0 0 -2 0 0 0c-6,0 -11,-2 -15,-6 -3,-4 -6,-10 -7,-16 0,-1 0,-2 0,-3 0,-7 3,-14 7,-19 4,-5 10,-9 16,-10l0 0zm2 10l-1 0c-4,0 -7,3 -10,6 -2,3 -4,8 -4,13 0,1 0,2 0,2l0 0c0,4 2,8 4,10 2,2 5,3 8,3l0 0 1 0c4,0 7,-2 10,-6 3,-3 4,-8 4,-13 0,-1 0,-1 0,-2l0 0c0,-4 -2,-7 -4,-10 -2,-2 -5,-3 -8,-3l0 0z"/>
    <path class="fil3" d="M650 873c10,-1 19,8 19,20 0,12 -9,23 -19,24 -10,1 -18,-8 -18,-20 0,-12 8,-23 18,-24z"/>
    <path class="fil1" d="M650 868l2 0 0 0c5,0 11,2 14,6 4,4 7,10 7,16 0,1 0,2 0,3 0,7 -2,14 -6,19 -4,5 -10,9 -16,10l-1 0 -1 0 -1 0c-5,0 -10,-3 -14,-7 -4,-3 -6,-9 -7,-15 0,-1 0,-2 0,-3 0,-7 2,-14 6,-19 4,-5 10,-9 17,-10l0 0zm2 10l-1 0c-4,0 -8,2 -10,6 -3,3 -5,8 -5,13 0,1 0,1 0,2l0 0c1,4 2,7 5,10 2,2 4,3 7,3l0 0 2 0c3,0 7,-3 9,-6 3,-3 5,-8 5,-13 0,-1 0,-2 0,-2l0 0c-1,-4 -2,-8 -4,-10 -2,-2 -5,-3 -8,-3l0 0z"/>
    <path class="fil3" d="M591 903c10,-1 18,8 18,20 0,12 -8,22 -18,24 -10,1 -19,-8 -19,-20 0,-13 9,-23 19,-24z"/>
    <path class="fil1" d="M591 898l1 0 1 0c5,0 10,2 14,6 4,4 6,9 7,15 0,1 0,3 0,4 0,7 -2,13 -6,19 -4,5 -10,9 -17,9l0 0 -2 0 0 0c-5,0 -11,-2 -14,-6 -4,-4 -7,-9 -7,-15 0,-1 0,-2 0,-3 0,-8 2,-14 6,-19 4,-6 10,-9 16,-10l1 0zm2 9l-2 0c-3,1 -7,3 -9,6 -3,4 -5,9 -5,14 0,0 0,1 0,2l0 0c1,4 2,7 4,9 2,3 5,4 8,4l0 0 1 0c4,-1 8,-3 10,-6 3,-4 5,-8 5,-13 0,-1 0,-2 0,-3l0 0c-1,-4 -2,-7 -5,-9 -2,-2 -4,-4 -7,-4l0 0z"/>
    <path class="fil3" d="M706 845c10,-1 18,8 18,20 0,12 -8,23 -18,24 -11,1 -19,-8 -19,-20 0,-12 8,-23 19,-24z"/>
    <path class="fil1" d="M705 840l2 0 0 0c6,0 11,3 15,7 4,3 6,9 7,15 0,1 0,2 0,3 0,7 -2,14 -6,19 -5,5 -10,9 -17,10l0 0 -2 0 0 0c-6,0 -11,-3 -15,-7 -3,-3 -6,-9 -7,-15 0,-1 0,-2 0,-3 0,-7 3,-14 7,-19 4,-5 10,-9 16,-10l0 0zm2 10l-1 0c-4,0 -7,3 -10,6 -2,3 -4,8 -4,13 0,1 0,2 0,2l0 0c0,4 2,8 4,10 2,2 5,3 8,3l0 0 1 0c4,0 7,-3 10,-6 3,-3 4,-8 4,-13 0,-1 0,-1 0,-2l0 0c0,-4 -2,-7 -4,-10 -2,-2 -5,-3 -8,-3l0 0z"/>
    <path class="fil3" d="M650 1134c10,-1 19,8 19,20 0,12 -9,23 -19,24 -10,1 -18,-8 -18,-20 0,-12 8,-23 18,-24z"/>
    <path class="fil1" d="M650 1130l2 -1 0 0c5,0 11,3 14,7 4,4 7,9 7,15 0,1 0,2 0,3 0,7 -2,14 -6,19 -4,6 -10,9 -16,10l-1 0 -1 0 -1 0c-5,0 -10,-2 -14,-6 -4,-4 -6,-9 -7,-16 0,-1 0,-2 0,-3 0,-7 2,-14 6,-19 4,-5 10,-9 17,-9l0 0zm2 9l-1 0c-4,0 -8,3 -10,6 -3,4 -5,8 -5,13 0,1 0,2 0,2l0 0c1,4 2,8 5,10 2,2 4,3 7,3l0 0 2 0c3,0 7,-2 9,-6 3,-3 5,-8 5,-13 0,-1 0,-1 0,-2l0 0c-1,-4 -2,-7 -4,-10 -2,-2 -5,-3 -8,-3l0 0z"/>
    <path class="fil3" d="M591 1164c10,-1 18,8 18,20 0,12 -8,23 -18,24 -10,1 -19,-8 -19,-20 0,-12 9,-23 19,-24z"/>
    <path class="fil1" d="M591 1159l1 0 1 0c5,0 10,2 14,6 4,4 6,10 7,16 0,1 0,2 0,3 0,7 -2,14 -6,19 -4,5 -10,9 -17,10l0 0 -2 0 0 0c-5,0 -11,-3 -14,-7 -4,-3 -7,-9 -7,-15 0,-1 0,-2 0,-3 0,-7 2,-14 6,-19 4,-5 10,-9 16,-10l1 0zm2 10l-2 0c-3,0 -7,2 -9,6 -3,3 -5,8 -5,13 0,1 0,1 0,2l0 0c1,4 2,7 4,10 2,2 5,3 8,3l0 0 1 0c4,0 8,-3 10,-6 3,-3 5,-8 5,-13 0,-1 0,-2 0,-2l0 0c-1,-4 -2,-8 -5,-10 -2,-2 -4,-3 -7,-3l0 0z"/>
    <path class="fil3" d="M706 1106c10,-1 18,8 18,20 0,12 -8,23 -18,24 -11,1 -19,-8 -19,-20 0,-12 8,-22 19,-24z"/>
    <path class="fil1" d="M705 1102l2 0 0 0c6,0 11,2 15,6 4,4 6,9 7,15 0,1 0,2 0,3 0,7 -2,14 -6,19 -5,6 -10,9 -17,10l0 0 -2 0 0 0c-6,0 -11,-2 -15,-6 -3,-4 -6,-9 -7,-15 0,-1 0,-3 0,-4 0,-7 3,-14 7,-19 4,-5 10,-9 16,-9l0 0zm2 9l-1 0c-4,1 -7,3 -10,6 -2,4 -4,8 -4,13 0,1 0,2 0,3l0 0c0,3 2,7 4,9 2,2 5,4 8,4l0 0 1 -1c4,0 7,-2 10,-6 3,-3 4,-8 4,-13 0,0 0,-1 0,-2l0 0c0,-4 -2,-7 -4,-9 -2,-3 -5,-4 -8,-4l0 0z"/>
   </g>
   <path class="fil1" d="M2712 675c0,85 18,120 77,120 36,0 86,0 119,-13l0 -41c-33,5 -50,5 -86,5 -33,0 -49,-3 -49,-45l74 0c42,0 65,-17 65,-58 0,-77 -31,-84 -98,-84 -74,0 -102,17 -102,116zm61 -18c0,-50 12,-52 44,-52 29,0 34,6 34,35 0,11 -7,17 -19,17l-59 0z"/>
   <path class="fil1" d="M2466 748c0,22 11,37 23,44l-21 22 0 29c0,46 32,67 73,67l65 0c58,0 73,-34 73,-67l0 -25c0,-47 -27,-69 -69,-69l-71 0c-9,0 -17,-1 -17,-12 0,-10 10,-10 17,-10l54 0c65,0 79,-44 79,-78 0,-27 -4,-35 -8,-45l25 -8 0 -36 -141 0c-52,0 -80,27 -80,82 0,23 6,52 25,64 -19,6 -27,23 -27,42zm63 -106c0,-17 4,-33 29,-33l23 0c22,0 29,9 30,33 0,21 -6,36 -29,36l-25 0c-21,0 -28,-15 -28,-36zm1 194l0 -39c0,0 10,1 18,1l48 0c17,1 22,9 22,22l0 17c0,13 -2,24 -25,24l-36 0c-15,0 -27,-2 -27,-25l0 0z"/>
   <path class="fil1" d="M2237 733c0,31 21,61 66,62 35,1 68,-23 70,-28l13 25 49 0 0 -161c0,-58 -34,-75 -84,-75 -44,0 -75,3 -106,15l0 38c19,-1 77,-5 97,-5 20,0 31,4 31,29 1,0 0,15 0,15 0,0 -68,0 -68,0 -50,0 -68,29 -68,63l0 22zm61 -8l0 -12c0,-10 3,-22 19,-23l56 -5 0 43c0,0 -28,18 -53,18 -11,0 -22,-2 -22,-21z"/>
   <path class="fil1" d="M2062 792l61 0 0 -148c15,-21 33,-26 59,-26 13,0 27,1 33,2l0 -59c-6,-3 -15,-3 -26,-3 -28,0 -50,16 -66,32l-10 -30 -51 0 0 232z"/>
   <path class="fil1" d="M1814 680c0,83 25,115 105,115 82,0 106,-29 106,-115 0,-93 -26,-122 -106,-122 -78,0 -105,27 -105,122zm61 0c0,-66 8,-73 44,-73 37,0 45,7 45,73 0,61 -10,65 -45,65 -32,0 -44,-6 -44,-65z"/>
   <path class="fil1" d="M1637 607l38 0 0 102c0,62 22,83 56,83l54 0 0 -37c-3,0 -30,-9 -30,-9 -11,-5 -19,-12 -19,-46l0 -93 52 0 0 -47 -52 0 0 -64 -51 0 -10 64 -38 13 0 34z"/>
   <path class="fil1" d="M1405 580c0,28 6,85 83,85l49 0c23,0 29,12 29,30l0 17c0,24 -21,27 -40,27 -40,0 -94,-3 -111,-4l0 48c33,9 69,13 124,13 43,0 88,-14 88,-86l0 -22c0,-35 -13,-84 -76,-84l-50 0c-25,0 -34,-6 -34,-31l0 -16c0,-30 15,-31 41,-31 16,0 80,2 108,5l0 -49c-26,-7 -78,-13 -124,-12 -49,1 -87,19 -87,82l0 28z"/>
   <path class="fil4" d="M4180 792l62 0 0 -148c14,-21 33,-26 58,-26 14,0 28,1 34,2l0 -59c-6,-3 -16,-3 -26,-3 -29,0 -51,16 -66,32l-10 -30 -52 0 0 232z"/>
   <path class="fil4" d="M3947 675c0,85 18,120 77,120 36,0 86,0 119,-13l0 -41c-33,5 -50,5 -85,5 -34,0 -49,-3 -49,-45l73 0c42,0 65,-17 65,-58 0,-77 -31,-84 -98,-84 -74,0 -102,17 -102,116zm62 -18c-1,-50 11,-52 43,-52 30,0 34,6 34,35 0,11 -7,17 -19,17l-58 0z"/>
   <polygon class="fil4" points="3711,560 3791,792 3860,792 3944,560 3879,560 3827,721 3776,560 "/>
   <path class="fil4" d="M3542 792l61 0 0 -148c15,-21 33,-26 59,-26 13,0 27,1 33,2l0 -59c-6,-3 -16,-3 -26,-3 -28,0 -50,16 -66,32l-10 -30 -51 0 0 232z"/>
   <path class="fil4" d="M3309 675c0,85 17,120 76,120 37,0 86,0 119,-13l0 -41c-33,5 -50,5 -85,5 -33,0 -49,-3 -49,-45l74 0c42,0 65,-17 65,-58 0,-77 -31,-84 -99,-84 -73,0 -101,17 -101,116zm61 -18c0,-50 11,-52 44,-52 29,0 33,6 33,35 0,11 -6,17 -19,17l-58 0z"/>
   <path class="fil4" d="M3056 580c0,28 5,85 83,85l49 0c23,0 29,12 29,30l0 17c0,24 -21,27 -40,27 -40,0 -94,-3 -111,-4l0 48c33,9 69,13 124,13 43,0 88,-14 88,-86l0 -22c0,-35 -13,-84 -76,-84l-51 0c-24,0 -34,-6 -34,-31l0 -16c0,-30 16,-31 42,-31 16,0 79,2 107,5l0 -49c-25,-7 -77,-13 -123,-12 -49,1 -87,19 -87,82l0 28z"/>
  </g>
 </g>
</svg>
