<?xml version="1.0" encoding="UTF-8"?>
<!DOCTYPE svg PUBLIC "-//W3C//DTD SVG 1.1//EN" "http://www.w3.org/Graphics/SVG/1.1/DTD/svg11.dtd">
<!-- Creator: CorelDRAW X7 -->
<svg xmlns="http://www.w3.org/2000/svg" xml:space="preserve" width="33.8666mm" height="43.3492mm" version="1.1" style="shape-rendering:geometricPrecision; text-rendering:geometricPrecision; image-rendering:optimizeQuality; fill-rule:evenodd; clip-rule:evenodd"
viewBox="0 0 3387 4335"
 xmlns:xlink="http://www.w3.org/1999/xlink">
 <defs>
  <style type="text/css">
   <![CDATA[
    .fil3 {fill:#A9ABAE}
    .fil0 {fill:#373435}
    .fil2 {fill:#157B96}
    .fil1 {fill:#373435;fill-rule:nonzero}
   ]]>
  </style>
 </defs>
 <g id="Layer_x0020_1">
  <metadata id="CorelCorpID_0Corel-Layer"/>
  <g id="_522447984">
   <polygon class="fil0" points="1694,62 2510,478 3325,893 3325,893 2510,1309 1725,1709 1694,1724 1694,1709 1694,1724 878,1309 62,893 62,893 878,478 "/>
   <path class="fil1" d="M1722 7l816 415 816 416c30,15 43,53 27,84 -6,12 -16,21 -27,27l-816 416 -785 399 -29 15c-4,2 -7,4 -11,5 -3,1 -5,1 -8,2l-2 0 -2 1 0 0 -7 0 -1 0c-3,0 -6,0 -9,-1l0 0c-7,-1 -14,-3 -21,-7l-814 -414 -816 -416c-30,-15 -43,-53 -27,-84 6,-12 16,-21 27,-27l816 -416 816 -415c19,-10 40,-9 57,0zm759 527l-787 -401 -788 401 -707 360 707 359 788 401 3 -1 784 -400 707 -359 -707 -360z"/>
   <polygon class="fil2" points="1693,4272 877,3863 61,3454 61,2636 61,2604 877,3013 1693,3423 "/>
   <path class="fil1" d="M1660 4326l-811 -407 -816 -409c-21,-11 -34,-33 -34,-56l0 0 0 -818 0 -32c0,-34 28,-62 62,-62 12,0 23,3 33,9l811 407 816 409c22,11 34,33 34,56l1 0 0 849c0,35 -28,63 -63,63 -12,0 -23,-3 -33,-9zm-755 -518l726 363 0 -710 -782 -392 -725 -364 0 711 781 392z"/>
   <polygon class="fil2" points="3325,2604 3325,2636 3325,3454 2509,3863 1705,4267 1693,4272 1693,3423 1717,3410 2509,3013 "/>
   <path class="fil1" d="M3387 2604l0 32 0 818c0,27 -16,49 -40,58l-810 407 -804 403 -1 0 0 1 -11 5c-31,16 -69,3 -84,-28 -4,-9 -6,-18 -6,-28l0 0 0 -849c0,-27 16,-50 39,-59l19 -9 792 -397 816 -410c31,-15 68,-2 84,28 4,9 6,19 6,28l0 0zm-125 812l0 -711 -725 364 -781 392 0 711 725 -364 781 -392z"/>
   <polygon class="fil2" points="1694,2572 878,2163 62,1754 62,936 62,904 878,1313 1694,1723 "/>
   <path class="fil1" d="M1661 2626l-811 -407 -816 -409c-22,-11 -34,-33 -34,-56l-1 0 0 -818 0 -32c0,-34 28,-62 63,-62 12,0 23,3 32,9l811 407 816 409c22,11 35,33 35,56l0 0 0 849c0,35 -28,63 -62,63 -12,0 -24,-3 -33,-9zm-756 -518l726 363 0 -710 -781 -392 -726 -364 0 711 781 392z"/>
   <polygon class="fil2" points="3325,904 3325,936 3325,1754 2510,2163 1705,2567 1694,2572 1694,1723 1718,1710 2510,1313 "/>
   <path class="fil1" d="M3388 904l0 32 0 818c0,27 -17,49 -40,58l-811 407 -804 403 -12 6c-30,15 -68,3 -83,-28 -5,-9 -7,-18 -7,-28l0 0 0 -849c0,-27 17,-50 40,-59l19 -9 792 -397 816 -410c30,-15 68,-2 83,28 5,9 7,19 7,28l0 0zm-125 812l0 -711 -726 364 -781 392 0 710 726 -363 781 -392z"/>
   <polygon class="fil2" points="1693,3423 877,3013 61,2604 61,1786 61,1754 877,2163 1693,2573 "/>
   <path class="fil1" d="M1660 3476l-811 -407 -816 -409c-21,-11 -34,-33 -34,-56l0 0 0 -818 0 -32c0,-34 28,-62 62,-62 12,0 23,3 33,9l811 407 816 409c22,11 34,33 34,56l1 0 0 850c0,34 -28,62 -63,62 -12,0 -23,-3 -33,-9zm-755 -518l726 364 0 -711 -782 -392 -725 -364 0 711 781 392z"/>
   <polygon class="fil2" points="3325,1754 3325,1786 3325,2604 2509,3013 1705,3417 1693,3423 1693,2573 1717,2561 2509,2163 "/>
   <path class="fil1" d="M3387 1754l0 32 0 818c0,27 -16,49 -40,58l-810 407 -804 403 -12 6c-31,16 -68,3 -84,-28 -4,-9 -6,-18 -6,-27l0 0 0 -850c0,-27 16,-50 39,-59l19 -9 792 -397 816 -409c31,-16 68,-3 84,27 4,9 6,19 6,28l0 0zm-125 812l0 -711 -725 364 -781 392 0 711 725 -364 781 -392z"/>
   <polygon class="fil3" points="3214,1325 2667,1599 2667,1839 3214,1565 "/>
   <path class="fil1" d="M3179 1383l-476 238 0 161 476 -239 0 -160zm-528 184l545 -273c5,-3 11,-5 18,-5 20,0 36,16 36,36l0 240 0 0c0,13 -7,25 -20,32l-544 273c-6,3 -12,5 -19,5 -19,0 -35,-16 -35,-36l0 -240 0 0c0,-13 7,-25 19,-32z"/>
   <polygon class="fil3" points="3214,2101 2667,2375 2667,2615 3214,2341 "/>
   <path class="fil1" d="M3179 2158l-476 239 0 160 476 -238 0 -161zm-528 185l545 -273c5,-3 11,-5 18,-5 20,0 36,16 36,36l0 240 0 0c0,13 -7,25 -20,31l-544 273c-6,4 -12,6 -19,6 -19,0 -35,-16 -35,-36l0 -240 0 0c0,-13 7,-26 19,-32z"/>
   <polygon class="fil3" points="3214,2921 2667,3196 2667,3436 3214,3161 "/>
   <path class="fil1" d="M3179 2979l-476 239 0 160 476 -238 0 -161zm-528 185l545 -273c5,-3 11,-5 18,-5 20,0 36,16 36,35l0 240 0 0c0,14 -7,26 -20,32l-544 273c-6,4 -12,6 -19,6 -19,0 -35,-16 -35,-36l0 -240 0 0c0,-13 7,-26 19,-32z"/>
   <path class="fil3" d="M2037 1966c32,-3 59,25 59,63 0,38 -27,72 -59,75 -32,4 -58,-24 -58,-63 0,-38 26,-71 58,-75z"/>
   <path class="fil1" d="M2037 1951l5 0 1 0c17,0 34,7 46,20 11,12 19,29 21,48 1,3 1,7 1,10 0,22 -8,44 -21,60 -13,16 -31,28 -51,30l-1 0 -5 0 -1 0c-18,0 -34,-7 -46,-20 -12,-11 -20,-28 -22,-47 0,-4 0,-7 0,-11 0,-22 8,-43 20,-59 13,-17 31,-28 52,-31l1 0zm6 30l-4 0c-12,2 -23,9 -31,19 -9,11 -14,26 -14,41 0,3 0,5 0,7l0 0c2,13 6,23 14,31 6,6 14,10 24,10l0 0 4 0c11,-1 23,-8 31,-19 8,-11 14,-25 14,-41 0,-2 -1,-5 -1,-7l0 0c-1,-12 -6,-23 -13,-30 -6,-7 -15,-11 -24,-11l0 0z"/>
   <path class="fil3" d="M1851 2060c33,-4 59,24 59,62 0,38 -26,72 -59,75 -32,4 -58,-24 -58,-62 0,-38 26,-72 58,-75z"/>
   <path class="fil1" d="M1851 2045l5 -1 1 0c18,0 34,8 46,20 11,12 19,29 21,48 1,3 1,7 1,10 0,23 -8,44 -20,60 -13,17 -32,28 -52,30l-1 0 -5 1 -1 0c-18,0 -34,-8 -46,-20 -12,-12 -19,-29 -22,-48 0,-3 0,-7 0,-10 0,-23 8,-44 20,-60 13,-17 31,-28 52,-30l1 0zm6 29l-4 1c-12,1 -23,8 -31,18 -9,11 -14,26 -14,42 0,2 0,4 0,7l0 0c2,12 7,23 14,30 6,7 15,11 24,11l0 0 4 -1c12,-1 23,-8 31,-19 8,-11 14,-25 14,-41 0,-2 0,-5 -1,-7l0 0c-1,-12 -6,-23 -13,-30 -6,-7 -15,-11 -24,-11l0 0z"/>
   <path class="fil3" d="M2212 1879c32,-4 58,24 58,62 0,38 -26,72 -58,76 -32,3 -59,-25 -59,-63 0,-38 27,-72 59,-75z"/>
   <path class="fil1" d="M2211 1864l5 0 1 -1c18,0 34,8 46,20 12,12 20,29 22,48 0,4 0,7 0,10 0,23 -7,44 -20,60 -13,17 -31,28 -52,31l0 0 -6 0 0 0c-18,0 -34,-8 -47,-20 -11,-12 -19,-29 -21,-48 0,-3 -1,-7 -1,-10 0,-23 8,-44 21,-60 13,-17 31,-28 51,-30l1 0zm6 30l-4 0c-11,1 -22,8 -31,19 -8,11 -13,25 -13,41 0,2 0,5 0,7l0 0c1,12 6,23 13,30 7,7 15,11 25,11l0 0 3 0c12,-2 23,-9 31,-19 9,-11 14,-26 14,-42 0,-2 0,-4 0,-6l0 -1c-2,-12 -6,-22 -13,-30 -7,-6 -15,-10 -25,-10l0 0z"/>
   <path class="fil3" d="M2037 2742c32,-3 59,25 59,63 0,38 -27,71 -59,75 -32,3 -58,-25 -58,-63 0,-38 26,-71 58,-75z"/>
   <path class="fil1" d="M2037 2727l5 0 1 0c17,0 34,7 46,20 11,12 19,28 21,47 1,4 1,7 1,11 0,22 -8,43 -21,59 -13,17 -31,29 -51,31l-1 0 -5 0 -1 0c-18,0 -34,-7 -46,-20 -12,-12 -20,-28 -22,-47 0,-4 0,-7 0,-11 0,-22 8,-43 20,-60 13,-16 31,-28 52,-30l1 0zm6 30l-4 0c-12,1 -23,9 -31,19 -9,11 -14,26 -14,41 0,3 0,5 0,7l0 0c2,13 6,23 14,30 6,7 14,11 24,11l0 0 4 0c11,-1 23,-9 31,-19 8,-11 14,-26 14,-41 0,-3 -1,-5 -1,-7l0 0c-1,-13 -6,-23 -13,-30 -6,-7 -15,-11 -24,-11l0 0z"/>
   <path class="fil3" d="M1851 2835c33,-3 59,25 59,63 0,38 -26,72 -59,75 -32,4 -58,-25 -58,-63 0,-38 26,-71 58,-75z"/>
   <path class="fil1" d="M1851 2820l5 0 1 0c18,0 34,7 46,20 11,12 19,29 21,48 1,3 1,7 1,10 0,22 -8,44 -20,60 -13,16 -32,28 -52,30l-1 0 -5 0 -1 0c-18,0 -34,-7 -46,-20 -12,-11 -19,-28 -22,-47 0,-4 0,-7 0,-11 0,-22 8,-43 20,-59 13,-17 31,-28 52,-31l1 0zm6 30l-4 0c-12,2 -23,9 -31,19 -9,11 -14,26 -14,41 0,3 0,5 0,7l0 0c2,13 7,23 14,31 6,6 15,10 24,10l0 0 4 0c12,-1 23,-8 31,-19 8,-11 14,-25 14,-41 0,-2 0,-5 -1,-7l0 0c-1,-12 -6,-23 -13,-30 -6,-7 -15,-11 -24,-11l0 0z"/>
   <path class="fil3" d="M2212 2655c32,-4 58,24 58,62 0,38 -26,72 -58,75 -32,4 -59,-24 -59,-62 0,-38 27,-72 59,-75z"/>
   <path class="fil1" d="M2211 2640l5 -1 1 0c18,0 34,8 46,20 12,12 20,29 22,48 0,3 0,7 0,10 0,23 -7,44 -20,60 -13,17 -31,28 -52,30l0 0 -6 1 0 0c-18,0 -34,-8 -47,-20 -11,-12 -19,-29 -21,-48 0,-3 -1,-7 -1,-10 0,-23 8,-44 21,-60 13,-17 31,-28 51,-30l1 0zm6 29l-4 1c-11,1 -22,8 -31,18 -8,11 -13,26 -13,42 0,2 0,4 0,7l0 0c1,12 6,22 13,30 7,6 15,10 25,10l0 0 3 0c12,-1 23,-8 31,-19 9,-11 14,-25 14,-41 0,-2 0,-5 0,-7l0 0c-2,-12 -6,-23 -13,-30 -7,-7 -15,-11 -25,-11l0 0z"/>
   <path class="fil3" d="M2037 3563c32,-3 59,25 59,63 0,38 -27,71 -59,75 -32,3 -58,-25 -58,-63 0,-38 26,-72 58,-75z"/>
   <path class="fil1" d="M2037 3548l5 0 1 0c17,0 34,7 46,20 11,12 19,28 21,47 1,4 1,7 1,11 0,22 -8,43 -21,59 -13,17 -31,28 -51,31l-1 0 -5 0 -1 0c-18,0 -34,-7 -46,-20 -12,-12 -20,-29 -22,-48 0,-3 0,-7 0,-10 0,-22 8,-44 20,-60 13,-16 31,-28 52,-30l1 0zm6 30l-4 0c-12,1 -23,8 -31,19 -9,11 -14,26 -14,41 0,2 0,5 0,7l0 0c2,12 6,23 14,30 6,7 14,11 24,11l0 0 4 0c11,-2 23,-9 31,-19 8,-11 14,-26 14,-41 0,-3 -1,-5 -1,-7l0 0c-1,-13 -6,-23 -13,-31 -6,-6 -15,-10 -24,-10l0 0z"/>
   <path class="fil3" d="M1851 3656c33,-3 59,25 59,63 0,38 -26,71 -59,75 -32,3 -58,-25 -58,-63 0,-38 26,-71 58,-75z"/>
   <path class="fil1" d="M1851 3641l5 0 1 0c18,0 34,7 46,20 11,12 19,28 21,48 1,3 1,6 1,10 0,22 -8,43 -20,60 -13,16 -32,28 -52,30l-1 0 -5 0 -1 0c-18,0 -34,-7 -46,-20 -12,-12 -19,-28 -22,-47 0,-4 0,-7 0,-11 0,-22 8,-43 20,-59 13,-17 31,-29 52,-31l1 0zm6 30l-4 0c-12,1 -23,9 -31,19 -9,11 -14,26 -14,41 0,3 0,5 0,7l0 0c2,13 7,23 14,30 6,7 15,11 24,11l0 0 4 0c12,-1 23,-9 31,-19 8,-11 14,-26 14,-41 0,-3 0,-5 -1,-7l0 0c-1,-13 -6,-23 -13,-30 -6,-7 -15,-11 -24,-11l0 0z"/>
   <path class="fil3" d="M2212 3475c32,-3 58,25 58,63 0,38 -26,72 -58,75 -32,4 -59,-25 -59,-63 0,-38 27,-71 59,-75z"/>
   <path class="fil1" d="M2211 3460l5 0 1 0c18,0 34,7 46,20 12,12 20,29 22,48 0,3 0,7 0,10 0,22 -7,44 -20,60 -13,16 -31,28 -52,30l0 0 -6 0 0 0c-18,0 -34,-7 -47,-20 -11,-11 -19,-28 -21,-47 0,-4 -1,-7 -1,-11 0,-22 8,-43 21,-59 13,-17 31,-28 51,-31l1 0zm6 30l-4 0c-11,2 -22,9 -31,19 -8,11 -13,26 -13,41 0,3 0,5 0,7l0 0c1,13 6,23 13,31 7,6 15,10 25,10l0 0 3 0c12,-1 23,-8 31,-19 9,-11 14,-25 14,-41 0,-2 0,-5 0,-7l0 0c-2,-12 -6,-23 -13,-30 -7,-7 -15,-11 -25,-11l0 0z"/>
  </g>
 </g>
</svg>
