<?xml version="1.0" encoding="UTF-8"?>
<!DOCTYPE svg PUBLIC "-//W3C//DTD SVG 1.1//EN" "http://www.w3.org/Graphics/SVG/1.1/DTD/svg11.dtd">
<!-- Creator: CorelDRAW X7 -->
<svg xmlns="http://www.w3.org/2000/svg" xml:space="preserve" width="4.7412mm" height="6.0958mm" version="1.1" style="shape-rendering:geometricPrecision; text-rendering:geometricPrecision; image-rendering:optimizeQuality; fill-rule:evenodd; clip-rule:evenodd"
viewBox="0 0 474 610"
 xmlns:xlink="http://www.w3.org/1999/xlink">
 <defs>
  <style type="text/css">
   <![CDATA[
    .fil3 {fill:#A9ABAE}
    .fil0 {fill:#373435}
    .fil2 {fill:#157B96}
    .fil1 {fill:#373435;fill-rule:nonzero}
   ]]>
  </style>
 </defs>
 <g id="Layer_x0020_1">
  <metadata id="CorelCorpID_0Corel-Layer"/>
  <g id="_450516544">
   <polygon class="fil0" points="237,9 352,67 467,126 467,126 352,184 242,240 237,243 237,240 237,243 122,184 8,126 8,126 122,67 "/>
   <path class="fil1" d="M241 1l115 58 115 59c4,2 6,7 3,12 0,1 -2,3 -3,3l-115 59 -111 56 -4 2c0,0 -1,1 -1,1 -1,0 -1,0 -1,0l-1 0 0 0 0 0 -1 0 0 0c0,0 -1,0 -1,0l0 0c-1,0 -2,0 -3,-1l-115 -58 -114 -59c-5,-2 -6,-7 -4,-11 1,-2 2,-3 4,-4l114 -59 115 -58c3,-1 6,-1 8,0zm107 74l-111 -56 -111 56 -99 51 99 50 111 57 1 -1 110 -56 99 -50 -99 -51z"/>
   <polygon class="fil2" points="237,601 122,543 8,486 8,371 8,366 122,424 237,481 "/>
   <path class="fil1" d="M232 608l-114 -57 -114 -57c-3,-2 -5,-5 -5,-8l0 0 0 -115 0 -5c0,-5 4,-9 9,-9 1,0 3,1 4,2l114 57 115 57c3,2 5,5 5,8l0 0 0 120c0,5 -4,9 -9,9 -2,0 -3,-1 -5,-2zm-106 -73l102 52 0 -100 -110 -55 -102 -52 0 100 110 55z"/>
   <polygon class="fil2" points="467,366 467,371 467,486 352,543 239,600 237,601 237,481 240,480 352,424 "/>
   <path class="fil1" d="M475 366l0 5 0 115c0,3 -2,7 -5,8l-114 57 -113 57 0 0 0 0 -2 1c-4,2 -10,0 -12,-4 0,-2 -1,-3 -1,-4l0 0 0 -120c0,-3 3,-7 6,-8l3 -1 111 -56 115 -58c4,-2 9,0 11,4 1,2 1,3 1,4l0 0zm-17 114l0 -100 -102 52 -110 55 0 100 102 -52 110 -55z"/>
   <polygon class="fil2" points="237,362 122,304 8,247 8,132 8,127 122,185 237,242 "/>
   <path class="fil1" d="M232 369l-114 -57 -114 -58c-3,-1 -5,-4 -5,-7l0 0 0 -115 0 -5c0,-5 4,-9 9,-9 1,0 3,1 4,2l114 57 115 57c3,2 5,5 5,8l0 0 0 120c0,5 -4,9 -9,9 -2,0 -3,-1 -5,-2zm-106 -73l102 52 0 -100 -110 -55 -102 -52 0 100 110 55z"/>
   <polygon class="fil2" points="467,127 467,132 467,247 352,304 239,361 237,362 237,242 240,241 352,185 "/>
   <path class="fil1" d="M475 127l0 5 0 115c0,3 -2,7 -5,8l-114 57 -113 57 -2 1c-4,2 -10,0 -12,-4 0,-2 -1,-3 -1,-4l0 0 0 -120c0,-4 3,-7 6,-8l3 -1 111 -56 115 -58c4,-2 9,0 11,4 1,1 1,3 1,4l0 0zm-17 114l0 -100 -102 52 -110 55 0 100 102 -52 110 -55z"/>
   <polygon class="fil2" points="237,481 122,424 8,366 8,251 8,247 122,304 237,362 "/>
   <path class="fil1" d="M232 489l-114 -57 -114 -58c-3,-1 -5,-5 -5,-8l0 0 0 -115 0 -4c0,-5 4,-9 9,-9 1,0 3,0 4,1l114 57 115 58c3,1 5,5 5,8l0 0 0 119c0,5 -4,9 -9,9 -2,0 -3,0 -5,-1zm-106 -73l102 51 0 -100 -110 -55 -102 -51 0 100 110 55z"/>
   <polygon class="fil2" points="467,247 467,251 467,366 352,424 239,480 237,481 237,362 240,360 352,304 "/>
   <path class="fil1" d="M475 247l0 4 0 115c0,4 -2,7 -5,8l-114 58 -113 56 -2 1c-4,2 -10,1 -12,-4 0,-1 -1,-2 -1,-4l0 0 0 -119c0,-4 3,-7 6,-8l3 -2 111 -56 115 -57c4,-2 9,-1 11,4 1,1 1,2 1,4l0 0zm-17 114l0 -100 -102 51 -110 55 0 100 102 -51 110 -55z"/>
   <polygon class="fil3" points="451,186 374,225 374,259 451,220 "/>
   <path class="fil1" d="M446 194l-67 34 0 23 67 -34 0 -23zm-74 26l76 -38c1,0 2,-1 3,-1 3,0 5,3 5,5l0 34 0 0c0,2 -1,4 -3,5l-76 38c-1,0 -2,1 -3,1 -3,0 -5,-3 -5,-5l0 -34 0 0c0,-2 1,-4 3,-5z"/>
   <polygon class="fil3" points="451,295 374,334 374,368 451,329 "/>
   <path class="fil1" d="M446 304l-67 33 0 23 67 -34 0 -22zm-74 26l76 -39c1,0 2,-1 3,-1 3,0 5,3 5,5l0 34 0 0c0,2 -1,4 -3,5l-76 38c-1,0 -2,1 -3,1 -3,0 -5,-2 -5,-5l0 -34 0 0c0,-2 1,-4 3,-4z"/>
   <polygon class="fil3" points="451,411 374,449 374,483 451,445 "/>
   <path class="fil1" d="M446 419l-67 33 0 23 67 -33 0 -23zm-74 26l76 -38c1,-1 2,-1 3,-1 3,0 5,2 5,5l0 34 0 0c0,1 -1,3 -3,4l-76 38c-1,1 -2,1 -3,1 -3,0 -5,-2 -5,-5l0 -34 0 0c0,-1 1,-3 3,-4z"/>
   <path class="fil3" d="M285 277c5,-1 9,3 9,8 0,6 -4,10 -9,11 -4,0 -8,-4 -8,-9 0,-5 4,-10 8,-10z"/>
   <path class="fil1" d="M285 274l1 0 0 0c3,0 5,1 7,3 1,2 2,4 3,7 0,0 0,1 0,1 0,3 -1,6 -3,9 -2,2 -4,4 -7,4l0 0 -1 0 0 0c-3,0 -5,-1 -7,-3 -1,-1 -3,-4 -3,-6 0,-1 0,-1 0,-2 0,-3 1,-6 3,-8 2,-3 4,-4 7,-5l0 0zm1 5l0 0c-2,0 -4,1 -5,2 -1,2 -2,4 -2,6 0,0 0,1 0,1l0 0c1,2 1,3 2,4 1,1 2,2 4,2l0 0 0 0c2,0 3,-1 5,-3 1,-1 2,-3 2,-6 0,0 -1,0 -1,-1l0 0c0,-1 0,-3 -1,-4 -1,-1 -3,-1 -4,-1l0 0z"/>
   <path class="fil3" d="M259 290c5,-1 8,3 8,8 0,6 -3,11 -8,11 -4,0 -8,-3 -8,-9 0,-5 4,-10 8,-10z"/>
   <path class="fil1" d="M259 288l1 -1 0 0c3,0 5,2 7,3 1,2 2,4 3,7 0,0 0,1 0,1 0,4 -1,7 -3,9 -2,2 -5,4 -7,4l-1 0 0 0 0 0c-3,0 -5,-1 -7,-3 -2,-1 -3,-4 -3,-6 0,-1 0,-1 0,-2 0,-3 1,-6 3,-8 2,-3 4,-4 7,-4l0 0zm1 4l0 0c-2,0 -4,1 -5,2 -1,2 -2,4 -2,6 0,1 0,1 0,1l0 0c0,2 1,3 2,4 1,1 2,2 4,2l0 0 0 0c2,0 3,-1 4,-3 2,-1 2,-3 2,-6 0,0 0,0 0,-1l0 0c0,-1 -1,-3 -2,-4 0,-1 -2,-1 -3,-1l0 0z"/>
   <path class="fil3" d="M310 264c5,0 8,4 8,9 0,5 -3,10 -8,11 -5,0 -8,-4 -8,-9 0,-6 3,-10 8,-11z"/>
   <path class="fil1" d="M310 262l1 0 0 0c2,0 5,1 6,3 2,2 3,4 3,7 0,0 0,1 0,1 0,3 -1,6 -3,8 -1,3 -4,4 -7,5l0 0 -1 0 0 0c-2,0 -5,-1 -6,-3 -2,-2 -3,-4 -3,-7 0,0 0,-1 0,-1 0,-3 1,-6 3,-9 1,-2 4,-4 7,-4l0 0zm1 4l-1 0c-1,0 -3,1 -4,3 -1,2 -2,4 -2,6 0,0 0,0 0,1l0 0c0,1 1,3 2,4 1,1 2,1 3,1l0 0 1 0c1,0 3,-1 4,-2 1,-2 2,-4 2,-6 0,0 0,-1 0,-1l0 0c0,-2 -1,-3 -2,-4 -1,-1 -2,-2 -3,-2l0 0z"/>
   <path class="fil3" d="M285 386c5,-1 9,3 9,8 0,6 -4,10 -9,11 -4,0 -8,-3 -8,-9 0,-5 4,-10 8,-10z"/>
   <path class="fil1" d="M285 383l1 0 0 0c3,0 5,1 7,3 1,2 2,4 3,7 0,0 0,1 0,1 0,4 -1,7 -3,9 -2,2 -4,4 -7,4l0 0 -1 0 0 0c-3,0 -5,-1 -7,-3 -1,-1 -3,-4 -3,-6 0,-1 0,-1 0,-2 0,-3 1,-6 3,-8 2,-3 4,-4 7,-4l0 -1zm1 5l0 0c-2,0 -4,1 -5,2 -1,2 -2,4 -2,6 0,1 0,1 0,1l0 0c1,2 1,3 2,4 1,1 2,2 4,2l0 0 0 0c2,0 3,-1 5,-3 1,-1 2,-3 2,-6 0,0 -1,0 -1,-1l0 0c0,-1 0,-3 -1,-4 -1,-1 -3,-1 -4,-1l0 0z"/>
   <path class="fil3" d="M259 399c5,-1 8,3 8,9 0,5 -3,10 -8,10 -4,1 -8,-3 -8,-9 0,-5 4,-10 8,-10z"/>
   <path class="fil1" d="M259 397l1 0 0 0c3,0 5,1 7,2 1,2 2,4 3,7 0,1 0,1 0,2 0,3 -1,6 -3,8 -2,2 -5,4 -7,4l-1 0 0 0 0 0c-3,0 -5,-1 -7,-3 -2,-1 -3,-4 -3,-6 0,-1 0,-1 0,-2 0,-3 1,-6 3,-8 2,-2 4,-4 7,-4l0 0zm1 4l0 0c-2,0 -4,1 -5,2 -1,2 -2,4 -2,6 0,1 0,1 0,1l0 0c0,2 1,3 2,5 1,0 2,1 4,1l0 0 0 0c2,0 3,-1 4,-3 2,-1 2,-3 2,-5 0,-1 0,-1 0,-1l0 0c0,-2 -1,-4 -2,-5 0,-1 -2,-1 -3,-1l0 0z"/>
   <path class="fil3" d="M310 373c5,0 8,4 8,9 0,5 -3,10 -8,11 -5,0 -8,-4 -8,-9 0,-5 3,-10 8,-11z"/>
   <path class="fil1" d="M310 371l1 0 0 0c2,0 5,1 6,3 2,2 3,4 3,7 0,0 0,1 0,1 0,3 -1,6 -3,8 -1,3 -4,4 -7,5l0 0 -1 0 0 0c-2,0 -5,-1 -6,-3 -2,-2 -3,-4 -3,-7 0,0 0,-1 0,-1 0,-3 1,-6 3,-9 1,-2 4,-4 7,-4l0 0zm1 4l-1 0c-1,1 -3,2 -4,3 -1,2 -2,4 -2,6 0,0 0,1 0,1l0 0c0,2 1,3 2,4 1,1 2,2 3,2l0 0 1 0c1,-1 3,-2 4,-3 1,-2 2,-4 2,-6 0,0 0,-1 0,-1l0 0c0,-2 -1,-3 -2,-4 -1,-1 -2,-2 -3,-2l0 0z"/>
   <path class="fil3" d="M285 501c5,0 9,3 9,9 0,5 -4,10 -9,10 -4,1 -8,-3 -8,-8 0,-6 4,-10 8,-11z"/>
   <path class="fil1" d="M285 499l1 0 0 0c3,0 5,1 7,3 1,1 2,4 3,6 0,1 0,1 0,2 0,3 -1,6 -3,8 -2,3 -4,4 -7,5l0 0 -1 0 0 0c-3,0 -5,-1 -7,-3 -1,-2 -3,-4 -3,-7 0,0 0,-1 0,-1 0,-4 1,-7 3,-9 2,-2 4,-4 7,-4l0 0zm1 4l0 0c-2,0 -4,1 -5,3 -1,1 -2,3 -2,6 0,0 0,0 0,1l0 0c1,1 1,3 2,4 1,1 2,1 4,1l0 0 0 0c2,0 3,-1 5,-2 1,-2 2,-4 2,-6 0,0 -1,-1 -1,-1l0 0c0,-2 0,-3 -1,-4 -1,-1 -3,-2 -4,-2l0 0z"/>
   <path class="fil3" d="M259 514c5,0 8,4 8,9 0,5 -3,10 -8,11 -4,0 -8,-4 -8,-9 0,-6 4,-10 8,-11z"/>
   <path class="fil1" d="M259 512l1 0 0 0c3,0 5,1 7,3 1,1 2,4 3,7 0,0 0,0 0,1 0,3 -1,6 -3,8 -2,3 -5,4 -7,5l-1 0 0 0 0 0c-3,0 -5,-1 -7,-3 -2,-2 -3,-4 -3,-7 0,0 0,-1 0,-1 0,-3 1,-6 3,-9 2,-2 4,-4 7,-4l0 0zm1 4l0 0c-2,0 -4,1 -5,3 -1,1 -2,4 -2,6 0,0 0,0 0,1l0 0c0,1 1,3 2,4 1,1 2,1 4,1l0 0 0 0c2,0 3,-1 4,-2 2,-2 2,-4 2,-6 0,0 0,-1 0,-1l0 0c0,-2 -1,-3 -2,-4 0,-1 -2,-2 -3,-2l0 0z"/>
   <path class="fil3" d="M310 489c5,-1 8,3 8,9 0,5 -3,10 -8,10 -5,1 -8,-3 -8,-9 0,-5 3,-10 8,-10z"/>
   <path class="fil1" d="M310 487l1 0 0 0c2,0 5,1 6,2 2,2 3,4 3,7 0,1 0,1 0,2 0,3 -1,6 -3,8 -1,2 -4,4 -7,4l0 0 -1 0 0 0c-2,0 -5,-1 -6,-3 -2,-1 -3,-4 -3,-6 0,-1 0,-1 0,-2 0,-3 1,-6 3,-8 1,-2 4,-4 7,-4l0 0zm1 4l-1 0c-1,0 -3,1 -4,2 -1,2 -2,4 -2,6 0,1 0,1 0,1l0 0c0,2 1,3 2,5 1,0 2,1 3,1l0 0 1 0c1,0 3,-1 4,-3 1,-1 2,-3 2,-5 0,-1 0,-1 0,-1l0 0c0,-2 -1,-4 -2,-5 -1,-1 -2,-1 -3,-1l0 0z"/>
  </g>
 </g>
</svg>
